# Blender v3.1.2 OBJ File: 'BigRock.blend'
# www.blender.org
mtllib BigRock.mtl
o Rock4_Cylinder.019
v 8.534218 0.779591 2.263509
v 7.932794 -0.014319 2.519862
v 7.791827 2.883969 -0.134375
v 7.885900 3.219948 2.152168
v 6.194335 3.220322 2.179581
v 6.326312 2.206362 -0.503841
v 5.088324 0.500492 0.481276
v 7.085499 3.904883 0.301224
v 6.310169 3.852438 0.943481
v 8.644263 2.896768 0.905192
v 8.814463 0.232339 0.499049
v 6.428312 0.455184 2.847272
v 5.826917 -0.019440 2.219307
v 6.042253 0.256535 -0.459768
v 7.266639 -0.015105 -0.530629
v 7.310753 3.962981 1.319638
vt 0.580537 0.642856
vt 0.459686 0.841307
vt 0.351660 0.657328
vt 0.210723 0.820035
vt 0.400652 0.999727
vt 0.131348 1.000000
vt 0.093209 0.766923
vt 0.017439 0.722579
vt 0.783260 0.077998
vt 0.827817 0.408245
vt 0.925681 0.307082
vt 0.652207 0.884264
vt 0.766836 0.998748
vt 0.623919 0.999586
vt 0.075549 0.994081
vt 0.131888 0.328580
vt 0.336901 0.226609
vt 0.302065 0.418960
vt 0.259537 1.000000
vt 0.643316 1.000000
vt 0.892795 0.998903
vt 0.957661 1.000000
vt 1.000000 0.989583
vt 0.958220 0.669178
vt 0.632388 0.118421
vt 0.800339 0.741480
vt 0.020207 1.000000
vt 0.478254 0.324164
vn -0.0916 -0.7502 0.6548
vn -0.9400 0.3314 0.0814
vn -0.2216 -0.9680 -0.1175
vn 0.1835 -0.9822 -0.0398
vn 0.8549 0.2479 0.4557
vn -0.6888 0.0841 -0.7200
vn 0.0158 0.2360 0.9716
vn -0.0966 0.9947 -0.0354
vn -0.2545 0.8705 0.4213
vn 0.5986 0.6269 -0.4986
vn -0.7534 0.0934 0.6509
vn -0.8323 0.3614 -0.4203
vn 0.2010 0.0968 -0.9748
vn 0.0378 0.4142 -0.9094
vn 0.2599 0.1128 0.9590
vn 0.0109 0.7498 0.6616
vn -0.9030 0.1075 0.4159
vn -0.3590 -0.9250 -0.1241
vn 0.0025 -1.0000 -0.0003
vn 0.9887 0.0412 0.1443
vn -0.0608 -0.0137 -0.9981
vn 0.5523 0.0139 -0.8335
vn 0.7643 0.1446 -0.6285
vn 0.2448 0.1130 0.9630
vn 0.6493 0.7324 0.2051
vn -0.5562 0.5457 -0.6268
vn 0.8058 -0.5173 0.2884
vn 0.5814 0.7948 -0.1739
usemtl Rock1_1
s off
f 2/1/1 12/2/1 13/3/1
f 7/4/2 5/5/2 9/6/2
f 13/3/3 14/7/3 15/8/3
f 2/9/4 15/10/4 11/11/4
f 1/12/5 10/13/5 4/14/5
f 7/4/6 6/15/6 14/7/6
f 12/2/7 4/14/7 5/5/7
f 9/16/8 16/17/8 8/18/8
f 9/19/9 5/5/9 16/20/9
f 10/13/10 3/21/10 8/22/10
f 12/2/11 5/5/11 13/3/11
f 9/6/12 6/15/12 7/4/12
f 6/23/13 3/21/13 15/24/13
f 8/22/14 3/21/14 6/23/14
f 1/12/15 4/14/15 2/1/15
f 5/5/16 4/14/16 16/20/16
f 13/3/17 5/5/17 7/4/17
f 13/3/18 7/4/18 14/7/18
f 2/9/19 13/25/19 15/10/19
f 11/26/20 10/13/20 1/12/20
f 15/8/21 14/7/21 6/15/21
f 15/24/22 3/21/22 11/26/22
f 10/13/23 11/26/23 3/21/23
f 2/1/24 4/14/24 12/2/24
f 10/13/25 16/20/25 4/14/25
f 8/27/26 6/15/26 9/6/26
f 2/1/27 11/26/27 1/12/27
f 10/28/28 8/18/28 16/17/28
