# Blender v3.1.2 OBJ File: 'Feather Texture.blend'
# www.blender.org
mtllib Feather.mtl
o Cylinder_Cylinder.001
v 0.529221 0.003866 -3.580383
v 0.523680 -0.100000 -3.460635
v 0.523680 0.100000 -3.460635
v 0.637372 -0.003866 -3.422628
v 0.871388 -0.100000 -1.746619
v 0.871388 0.100000 -1.746619
v 0.975004 -0.003866 -1.653045
v 0.954632 -0.003866 -1.858703
v 0.865621 -0.100000 0.415809
v 0.865621 0.100000 0.415809
v 0.948266 -0.003866 0.528336
v 0.969736 -0.003866 0.322789
v 0.502159 -0.100000 2.159700
v 0.502159 0.100000 2.159700
v 0.558415 -0.003866 2.286746
v 0.622670 -0.003866 2.090547
v -0.005568 -0.050000 3.274105
v -0.005568 0.050000 3.274105
v -0.049653 -0.003866 3.437325
v 0.033642 -0.003866 3.438564
v -0.474342 -0.100000 2.158353
v -0.474342 0.100000 2.158353
v -0.594738 -0.003866 2.087300
v -0.533856 -0.003866 2.284850
v -0.828754 -0.100000 0.411291
v -0.828754 0.100000 0.411291
v -0.932371 -0.003866 0.317717
v -0.911998 -0.003866 0.523376
v -0.822987 -0.100000 -1.751138
v -0.822987 0.100000 -1.751138
v -0.905632 -0.003866 -1.863664
v -0.927102 -0.003866 -1.658117
v -0.465921 -0.100000 -3.464345
v -0.465921 0.100000 -3.464345
v -0.472056 -0.003866 -3.584615
v -0.580037 -0.003866 -3.425874
v -0.078516 -0.003866 -3.812452
v 0.015683 0.050000 -3.743246
v 0.108472 -0.003866 -3.814330
v 0.015683 -0.050000 -3.743246
v -0.357006 0.003866 -3.660257
v -0.218412 -0.100000 -3.627074
v -0.177178 -0.003866 -3.763489
v -0.218413 0.100000 -3.627074
v 0.405066 -0.003866 -3.659788
v 0.223618 -0.003866 -3.760044
v 0.267231 0.100000 -3.624651
v 0.267231 -0.100000 -3.624651
v 0.009637 0.050000 -0.801952
v 0.697534 0.100000 -2.603627
v -0.644454 0.100000 -2.607742
v 0.012227 0.050000 -1.657199
v 0.009637 -0.050000 -0.802072
v 0.697534 -0.100000 -2.603627
v -0.644454 -0.100000 -2.607742
v 0.012227 -0.050000 -1.657420
v 0.008006 0.050000 -0.263520
v 0.973812 -0.003866 -1.205878
v 0.869946 0.100000 -1.206012
v -0.824429 0.100000 -1.210531
v 0.008006 -0.050000 -0.263521
v 0.869946 -0.100000 -1.206012
v -0.824429 -0.100000 -1.210531
v -0.928294 -0.003866 -1.210948
v -0.745926 -0.003866 -2.629939
v 0.799140 -0.003866 -2.625193
v 0.964800 -0.003866 -1.756058
v -0.916348 -0.003866 -1.761074
v -0.000000 0.150000 3.703008
v 0.129904 0.075000 3.703008
v 0.129904 -0.075000 3.703008
v -0.000000 -0.150000 3.703008
v -0.129904 -0.075000 3.703008
v -0.129904 0.075000 3.703008
v 0.000000 0.062563 -2.919418
v 0.054181 0.031281 -2.919419
v 0.054181 -0.031281 -2.919419
v 0.000000 -0.062562 -2.919418
v -0.054181 -0.031281 -2.919418
v -0.054181 0.031281 -2.919418
v 0.000000 0.018043 -2.994884
v -0.000000 0.057724 -2.947019
v -0.000000 0.042625 -2.980864
v 0.049990 0.028862 -2.947019
v 0.015625 0.009021 -2.994884
v 0.036915 0.021313 -2.980864
v 0.049990 -0.028862 -2.947019
v 0.015625 -0.009021 -2.994884
v 0.036915 -0.021313 -2.980864
v -0.000000 -0.057723 -2.947019
v 0.000000 -0.018043 -2.994884
v -0.000000 -0.042625 -2.980864
v -0.049990 -0.028862 -2.947019
v -0.015625 -0.009021 -2.994884
v -0.036915 -0.021313 -2.980864
v -0.049990 0.028862 -2.947019
v -0.015625 0.009021 -2.994884
v -0.036915 0.021313 -2.980864
v -0.000000 0.150000 3.703008
v 0.000000 -0.000000 4.030557
v 0.000000 0.129904 3.866783
v 0.000000 0.075000 3.986674
v 0.000000 -0.000000 4.030557
v 0.129904 0.075000 3.703008
v 0.064952 0.037500 3.986674
v 0.112500 0.064952 3.866782
v 0.000000 -0.000000 4.030557
v 0.129904 -0.075000 3.703008
v 0.064952 -0.037500 3.986674
v 0.112500 -0.064952 3.866782
v 0.000000 -0.000000 4.030557
v -0.000000 -0.150000 3.703008
v 0.000000 -0.075000 3.986674
v 0.000000 -0.129904 3.866783
v 0.000000 -0.000000 4.030557
v -0.129904 -0.075000 3.703008
v -0.064952 -0.037500 3.986674
v -0.112500 -0.064952 3.866782
v 0.000000 -0.000000 4.030557
v -0.129904 0.075000 3.703008
v -0.064952 0.037500 3.986674
v -0.112500 0.064952 3.866782
vt 0.132679 0.509778
vt 0.133218 0.041030
vt 0.193493 0.188176
vt 0.240292 0.419284
vt 0.240292 0.634180
vt 0.421389 0.305056
vt 0.421662 0.028736
vt 0.453353 0.044206
vt 0.485389 0.066110
vt 0.508241 0.179826
vt 0.899414 0.019458
vt 0.898417 0.040510
vt 0.885667 0.035341
vt 0.353749 0.049814
vt 0.357077 0.065206
vt 0.339458 0.070596
vt 0.885967 0.262991
vt 0.898691 0.248226
vt 0.898709 0.261845
vt 0.311401 0.291752
vt 0.295069 0.304517
vt 0.296428 0.290886
vt 0.886344 0.549619
vt 0.899072 0.537408
vt 0.899108 0.564626
vt 0.311401 0.578192
vt 0.297782 0.593497
vt 0.295069 0.566240
vt 0.886648 0.780304
vt 0.899380 0.771277
vt 0.899414 0.797200
vt 0.357924 0.809698
vt 0.347722 0.826963
vt 0.339458 0.800884
vt 0.129167 0.019458
vt 0.140023 0.019533
vt 0.421991 0.958274
vt 0.426166 0.980224
vt 0.415365 0.980271
vt 0.203531 0.171720
vt 0.211535 0.197831
vt 0.846752 0.036303
vt 0.832983 0.045564
vt 0.832983 0.019458
vt 0.253428 0.404713
vt 0.256154 0.431941
vt 0.846752 0.267419
vt 0.832983 0.279688
vt 0.832983 0.252454
vt 0.240292 0.705811
vt 0.256154 0.693743
vt 0.254789 0.707397
vt 0.846752 0.554062
vt 0.832983 0.568871
vt 0.832983 0.555258
vt 0.194350 0.933190
vt 0.211535 0.928340
vt 0.197517 0.949488
vt 0.846752 0.781618
vt 0.832983 0.797552
vt 0.832983 0.776370
vt 0.432415 0.019970
vt 0.408171 0.019458
vt 0.121935 0.980543
vt 0.132887 0.970849
vt 0.146304 0.980095
vt 0.182735 0.959662
vt 0.159146 0.973502
vt 0.162148 0.955015
vt 0.938329 0.038460
vt 0.952758 0.019458
vt 0.952758 0.041816
vt 0.369661 0.039510
vt 0.393222 0.026486
vt 0.390384 0.043842
vt 0.106908 0.973472
vt 0.083225 0.960381
vt 0.098852 0.955211
vt 0.898557 0.146423
vt 0.885817 0.149166
vt 0.318208 0.175995
vt 0.334239 0.178479
vt 0.898805 0.334785
vt 0.886061 0.334648
vt 0.295069 0.363750
vt 0.311401 0.363362
vt 0.061172 0.172631
vt 0.066222 0.189037
vt 0.489346 0.828251
vt 0.484537 0.810896
vt 0.256154 0.634492
vt 0.832983 0.482322
vt 0.846752 0.482402
vt 0.232879 0.822702
vt 0.217321 0.819501
vt 0.832983 0.670650
vt 0.846752 0.667840
vt 0.445190 0.026594
vt 0.468684 0.040483
vt 0.483362 0.050704
vt 0.065371 0.933752
vt 0.067203 0.950022
vt 0.421454 0.489667
vt 0.019458 0.635384
vt 0.019458 0.420488
vt 0.421429 0.418344
vt 0.531093 0.293542
vt 0.531093 0.365152
vt 0.132613 0.694474
vt 0.132653 0.581138
vt 0.042414 0.820384
vt 0.019458 0.707015
vt 0.531093 0.579982
vt 0.898727 0.275513
vt 0.832983 0.541597
vt 0.253428 0.721001
vt 0.297782 0.277304
vt 0.938329 0.228661
vt 0.938329 0.228661
vt 0.938329 0.228661
vt 0.938329 0.228661
vt 0.938329 0.228661
vt 0.938329 0.228661
vt 0.938329 0.228661
vt 0.938329 0.228661
vt 0.938329 0.228661
vt 0.938329 0.228661
vt 0.938329 0.228661
vt 0.938329 0.228661
vt 0.651876 0.023861
vt 0.657563 0.024013
vt 0.658204 0.027656
vt 0.652039 0.027491
vt 0.676470 0.904596
vt 0.661690 0.904201
vt 0.788273 0.027625
vt 0.794068 0.905544
vt 0.774184 0.905544
vt 0.779980 0.027625
vt 0.596048 0.897204
vt 0.585121 0.019458
vt 0.603867 0.019467
vt 0.603867 0.897208
vt 0.589745 0.897428
vt 0.570008 0.019995
vt 0.729474 0.027625
vt 0.735269 0.905544
vt 0.715385 0.905544
vt 0.721181 0.027625
vt 0.642782 0.904596
vt 0.644153 0.027656
vt 0.943222 0.142789
vt 0.945294 0.143985
vt 0.945294 0.146377
vt 0.943222 0.147572
vt 0.941151 0.146377
vt 0.941151 0.143985
vt 0.596202 0.900879
vt 0.590387 0.901085
vt 0.603416 0.900882
vt 0.780300 0.023961
vt 0.787952 0.023961
vt 0.721501 0.023961
vt 0.729153 0.023961
vt 0.644599 0.024013
vt 0.646050 0.019570
vt 0.651423 0.019458
vt 0.943223 0.139530
vt 0.948116 0.142355
vt 0.722502 0.019458
vt 0.728153 0.019458
vt 0.948116 0.148006
vt 0.596613 0.905418
vt 0.592318 0.905571
vt 0.943223 0.150831
vt 0.601940 0.905421
vt 0.938329 0.148006
vt 0.781301 0.019458
vt 0.786951 0.019458
vt 0.938329 0.142355
vt 0.655623 0.019570
vt 0.832983 0.836862
vt 0.851891 0.836467
vt 0.851517 0.858265
vt 0.835143 0.858607
vt 0.850138 0.874434
vt 0.840684 0.874632
vt 0.938329 0.085702
vt 0.946180 0.080731
vt 0.943791 0.090673
vt 0.943791 0.090673
vt 0.925471 0.956215
vt 0.905587 0.956215
vt 0.906919 0.934529
vt 0.924139 0.934529
vt 0.910558 0.918699
vt 0.920500 0.918699
vt 0.915529 0.912967
vt 0.915529 0.912967
vt 0.920706 0.873750
vt 0.905587 0.874052
vt 0.908218 0.852393
vt 0.921312 0.852131
vt 0.915166 0.836618
vt 0.922726 0.836467
vt 0.946180 0.100615
vt 0.938329 0.095644
vt 0.943791 0.090673
vt 0.943791 0.090673
vt 0.939449 0.874052
vt 0.937544 0.852393
vt 0.932098 0.836618
vt 0.954030 0.095644
vt 0.943791 0.090673
vt 0.852867 0.951063
vt 0.832983 0.951063
vt 0.834315 0.929377
vt 0.851535 0.929377
vt 0.837954 0.913547
vt 0.847896 0.913547
vt 0.954030 0.085702
vt 0.943791 0.090673
vt 0.866672 0.836862
vt 0.864318 0.858607
vt 0.857528 0.874632
vt 0.938329 0.189746
vt 0.938329 0.189746
vt 0.938329 0.189746
vt 0.938329 0.189746
vt 0.938329 0.189746
vt 0.938329 0.189746
vn 0.0728 -0.9973 -0.0035
vn 0.0886 0.9960 0.0123
vn 0.6549 -0.5856 -0.4777
vn 0.6817 0.5856 -0.4386
vn 0.7119 -0.6987 -0.0705
vn 0.7382 0.6706 -0.0731
vn 0.7115 -0.6987 0.0743
vn 0.7378 0.6706 0.0771
vn 0.6830 -0.6953 0.2237
vn 0.7080 0.6671 0.2319
vn -0.0040 -0.9626 0.2710
vn -0.0046 0.9500 0.3123
vn -0.6828 -0.6996 0.2104
vn -0.7081 0.6715 0.2182
vn -0.7119 -0.6987 0.0705
vn -0.7382 0.6706 0.0731
vn -0.7115 -0.6987 -0.0743
vn -0.7378 0.6706 -0.0771
vn -0.6594 -0.6033 -0.4486
vn -0.6773 0.5735 -0.4607
vn -0.0061 0.7931 -0.6090
vn -0.0055 -0.8355 -0.5495
vn -0.3785 -0.6989 -0.6069
vn -0.3332 0.6989 -0.6329
vn 0.3527 0.6841 -0.6384
vn 0.3397 -0.7118 -0.6148
vn 0.6657 -0.7339 -0.1350
vn 0.6930 0.7071 -0.1406
vn 0.6793 -0.7339 0.0018
vn 0.7071 0.7071 0.0019
vn 0.6650 -0.7339 0.1386
vn 0.6922 0.7071 0.1443
vn 0.4959 -0.8333 0.2443
vn 0.5334 0.8047 0.2608
vn -0.5026 -0.8335 0.2295
vn -0.5406 0.8048 0.2449
vn -0.6657 -0.7339 0.1350
vn -0.6930 0.7071 0.1406
vn -0.6793 -0.7339 -0.0018
vn -0.7071 0.7071 -0.0019
vn -0.6650 -0.7339 -0.1386
vn -0.6922 0.7071 -0.1443
vn 0.3639 0.7192 -0.5918
vn -0.3709 -0.7192 -0.5875
vn -0.1640 0.8026 -0.5735
vn 0.1408 -0.8306 -0.5388
vn -0.1422 -0.8308 -0.5382
vn -0.3911 0.7215 -0.5714
vn 0.1615 0.8024 -0.5745
vn 0.3834 -0.7214 -0.5766
vn -0.0700 0.9975 -0.0039
vn -0.0700 -0.9975 -0.0039
vn 0.0598 0.9982 0.0002
vn -0.0575 0.9983 0.0058
vn 0.0591 0.9982 0.0062
vn -0.0849 0.9963 0.0117
vn 0.0591 -0.9982 0.0062
vn -0.0575 -0.9983 0.0058
vn 0.0886 -0.9960 0.0123
vn -0.0849 -0.9963 0.0117
vn 0.0728 0.9973 -0.0035
vn -0.0581 0.9983 -0.0002
vn -0.0581 -0.9983 -0.0002
vn 0.0598 -0.9982 0.0002
vn 0.0000 0.0000 1.0000
vn -0.4943 0.8562 -0.1501
vn -0.5000 0.8660 -0.0114
vn -0.9999 0.0000 -0.0114
vn -0.5000 -0.8660 -0.0114
vn 0.5000 -0.8660 -0.0114
vn 0.9999 0.0000 -0.0114
vn 0.5000 0.8660 -0.0114
vn 0.0000 0.0000 -1.0000
vn 0.4943 -0.8562 -0.1501
vn -0.4943 -0.8562 -0.1501
vn -0.9887 0.0000 -0.1501
vn 0.9887 0.0000 -0.1501
vn 0.4664 0.8078 -0.3604
vn 0.2750 0.4763 -0.8352
vn 0.9328 0.0000 -0.3604
vn 0.5500 0.0000 -0.8352
vn 0.4664 -0.8078 -0.3604
vn 0.2750 -0.4763 -0.8352
vn -0.4664 -0.8078 -0.3604
vn -0.2750 -0.4763 -0.8352
vn -0.9328 0.0000 -0.3604
vn -0.5500 0.0000 -0.8352
vn -0.4664 0.8078 -0.3604
vn -0.2750 0.4763 -0.8352
vn 0.4943 0.8562 -0.1501
vn 0.4972 0.8612 0.1057
vn 0.4648 0.8050 0.3687
vn 0.2799 0.4848 0.8286
vn 0.9944 0.0000 0.1057
vn 0.9296 0.0000 0.3687
vn 0.5598 0.0000 0.8286
vn 0.4972 -0.8612 0.1057
vn 0.4648 -0.8050 0.3687
vn 0.2799 -0.4848 0.8286
vn -0.4972 -0.8612 0.1057
vn -0.4648 -0.8050 0.3687
vn -0.2799 -0.4848 0.8286
vn -0.9944 0.0000 0.1057
vn -0.9296 0.0000 0.3687
vn -0.5598 0.0000 0.8286
vn -0.4972 0.8612 0.1057
vn -0.4648 0.8050 0.3687
vn -0.2799 0.4848 0.8286
usemtl Material.001
s off
f 61/1/1 17/2/1 21/3/1 25/4/1 63/5/1
f 52/6/2 38/7/2 44/8/2 34/9/2 51/10/2
f 1/11/3 4/12/3 2/13/3
f 1/14/4 3/15/4 4/16/4
f 5/17/5 8/18/5 67/19/5
f 6/20/6 7/21/6 67/22/6
f 9/23/7 12/24/7 11/25/7
f 10/26/8 11/27/8 12/28/8
f 13/29/9 16/30/9 15/31/9
f 14/32/10 15/33/10 16/34/10
f 17/2/11 20/35/11 19/36/11
f 18/37/12 19/38/12 20/39/12
f 21/3/13 24/40/13 23/41/13
f 22/42/14 23/43/14 24/44/14
f 25/4/15 28/45/15 27/46/15
f 26/47/16 27/48/16 28/49/16
f 29/50/17 32/51/17 68/52/17
f 30/53/18 31/54/18 68/55/18
f 33/56/19 36/57/19 35/58/19
f 34/59/20 35/60/20 36/61/20
f 37/62/21 38/7/21 39/63/21
f 39/64/22 40/65/22 37/66/22
f 41/67/23 43/68/23 42/69/23
f 43/70/24 41/71/24 44/72/24
f 45/73/25 46/74/25 47/75/25
f 46/76/26 45/77/26 48/78/26
f 66/79/27 8/18/27 5/17/27 54/80/27
f 66/81/28 4/16/28 3/15/28 50/82/28
f 58/83/29 12/24/29 9/23/29 62/84/29
f 58/85/30 7/21/30 6/20/30 59/86/30
f 11/25/31 16/30/31 13/29/31 9/23/31
f 16/34/32 11/27/32 10/26/32 14/32/32
f 15/87/33 20/35/33 17/2/33 13/88/33
f 20/39/34 15/33/34 14/32/34 18/37/34
f 19/36/35 24/40/35 21/3/35 17/2/35
f 24/89/36 19/38/36 18/37/36 22/90/36
f 23/41/37 28/45/37 25/4/37 21/3/37
f 28/49/38 23/43/38 22/42/38 26/47/38
f 64/91/39 32/51/39 29/50/39 63/5/39
f 64/92/40 27/48/40 26/47/40 60/93/40
f 65/94/41 36/57/41 33/56/41 55/95/41
f 65/96/42 31/54/42 30/53/42 51/97/42
f 47/75/43 3/15/43 1/14/43 45/73/43
f 42/69/44 33/56/44 35/58/44 41/67/44
f 44/8/45 38/7/45 37/62/45 43/98/45
f 48/78/46 40/65/46 39/64/46 46/76/46
f 40/65/47 42/69/47 43/68/47 37/66/47
f 34/9/48 44/8/48 41/99/48 35/100/48
f 38/7/49 47/75/49 46/74/49 39/63/49
f 2/101/50 48/78/50 45/77/50 1/102/50
f 59/86/51 57/103/51 18/37/51 14/32/51 10/26/51
f 62/104/52 9/105/52 13/88/52 17/2/52 61/1/52
f 57/103/53 49/106/53 30/107/53 60/108/53
f 50/82/54 52/6/54 49/106/54 6/20/54
f 49/106/55 52/6/55 51/10/55 30/107/55
f 3/15/56 47/75/56 38/7/56 52/6/56 50/82/56
f 56/109/57 53/110/57 29/50/57 55/95/57
f 54/111/58 5/112/58 53/110/58 56/109/58
f 40/65/59 56/109/59 55/95/59 33/56/59 42/69/59
f 2/101/60 54/111/60 56/109/60 40/65/60 48/78/60
f 18/37/61 57/103/61 60/108/61 26/113/61 22/90/61
f 6/20/62 49/106/62 57/103/62 59/86/62
f 5/112/63 62/104/63 61/1/63 53/110/63
f 53/110/64 61/1/64 63/5/64 29/50/64
f 12/28/30 58/85/30 59/86/30 10/26/30
f 7/114/29 58/83/29 62/84/29 5/17/29
f 27/46/39 64/91/39 63/5/39 25/4/39
f 32/115/40 64/92/40 60/93/40 30/53/40
f 31/116/41 65/94/41 55/95/41 29/50/41
f 36/61/42 65/96/42 51/97/42 34/59/42
f 4/12/27 66/79/27 54/80/27 2/13/27
f 8/117/28 66/81/28 50/82/28 6/20/28
f 8/117/6 6/20/6 67/22/6
f 7/114/5 5/17/5 67/19/5
f 32/115/18 30/53/18 68/55/18
f 31/116/17 29/50/17 68/52/17
f 70/118/65 104/119/65 108/120/65 71/121/65
f 71/121/65 108/120/65 112/122/65 72/123/65
f 72/123/65 112/122/65 116/124/65 73/125/65
f 74/126/65 120/127/65 99/128/65 69/129/65
f 73/125/65 116/124/65 120/127/65 74/126/65
f 82/130/66 96/131/66 80/132/66 75/133/66
f 69/129/65 99/128/65 104/119/65 70/118/65
f 80/132/67 74/134/67 69/135/67 75/133/67
f 79/136/68 73/137/68 74/138/68 80/139/68
f 78/140/69 72/141/69 73/142/69 79/143/69
f 77/144/70 71/145/70 72/141/70 78/140/70
f 76/146/71 70/147/71 71/148/71 77/149/71
f 75/133/72 69/135/72 70/150/72 76/151/72
f 81/152/73 85/153/73 88/154/73 91/155/73 94/156/73 97/157/73
f 90/158/74 87/159/74 77/144/74 78/140/74
f 93/160/75 90/158/75 78/140/75 79/143/75
f 96/161/76 93/162/76 79/136/76 80/139/76
f 87/163/77 84/164/77 76/146/77 77/149/77
f 82/130/78 84/165/78 86/166/78 83/167/78
f 83/168/79 86/169/79 85/153/79 81/152/79
f 84/164/80 87/163/80 89/170/80 86/171/80
f 86/169/81 89/172/81 88/154/81 85/153/81
f 87/159/82 90/158/82 92/173/82 89/174/82
f 89/172/83 92/175/83 91/155/83 88/154/83
f 90/158/84 93/160/84 95/176/84 92/173/84
f 92/175/85 95/177/85 94/156/85 91/155/85
f 93/162/86 96/161/86 98/178/86 95/179/86
f 95/177/87 98/180/87 97/157/87 94/156/87
f 96/131/88 82/130/88 83/167/88 98/181/88
f 98/180/89 83/168/89 81/152/89 97/157/89
f 84/165/90 82/130/90 75/133/90 76/151/90
f 104/182/91 99/183/91 101/184/91 106/185/91
f 106/185/92 101/184/92 102/186/92 105/187/92
f 105/188/93 102/189/93 100/190/93 103/191/93
f 108/192/94 104/193/94 106/194/94 110/195/94
f 110/195/95 106/194/95 105/196/95 109/197/95
f 109/197/96 105/196/96 103/198/96 107/199/96
f 112/200/97 108/201/97 110/202/97 114/203/97
f 114/203/98 110/202/98 109/204/98 113/205/98
f 113/206/99 109/207/99 107/208/99 111/209/99
f 116/210/100 112/200/100 114/203/100 118/211/100
f 118/211/101 114/203/101 113/205/101 117/212/101
f 117/213/102 113/206/102 111/209/102 115/214/102
f 120/215/103 116/216/103 118/217/103 122/218/103
f 122/218/104 118/217/104 117/219/104 121/220/104
f 121/221/105 117/213/105 115/214/105 119/222/105
f 99/183/106 120/223/106 122/224/106 101/184/106
f 101/184/107 122/224/107 121/225/107 102/186/107
f 102/189/108 121/221/108 119/222/108 100/190/108
f 103/226/65 100/227/65 119/228/65 115/229/65 111/230/65 107/231/65
