# Blender v3.1.2 OBJ File: 'Flag.blend'
# www.blender.org
mtllib Flag.mtl
o Cylinder
v 0.000000 0.000000 -0.200000
v 0.000000 4.000000 -0.200000
v 0.141421 0.000000 -0.141421
v 0.141421 4.000000 -0.141421
v 0.200000 0.000000 0.000000
v 0.200000 4.000000 0.000000
v 0.141421 0.000000 0.141421
v 0.141421 4.000000 0.141421
v -0.000000 0.000000 0.200000
v -0.000000 4.000000 0.200000
v -0.141421 0.000000 0.141421
v -0.141421 4.000000 0.141421
v -0.200000 0.000000 -0.000000
v -0.200000 4.000000 -0.000000
v -0.141421 0.000000 -0.141421
v -0.141421 4.000000 -0.141421
v 0.100000 4.020000 -0.086667
v 0.100000 2.580000 -0.086667
v -0.100000 4.020000 -0.086667
v -0.100000 2.580000 -0.086667
v 0.058579 4.200000 -0.058579
v 0.141421 4.000000 -0.141421
v 0.100000 4.173204 -0.100000
v 0.130323 4.099999 -0.130323
v 0.000000 4.000000 -0.200000
v 0.000000 4.200000 -0.082843
v 0.000000 4.099999 -0.184304
v 0.000000 4.173204 -0.141421
v 0.082843 4.200000 -0.000000
v 0.200000 4.000000 0.000000
v 0.141421 4.173204 -0.000000
v 0.184304 4.099999 0.000000
v 0.058579 4.200000 0.058579
v 0.141421 4.000000 0.141421
v 0.100000 4.173204 0.100000
v 0.130323 4.099999 0.130323
v 0.000000 4.200000 0.082843
v -0.000000 4.000000 0.200000
v 0.000000 4.173204 0.141421
v 0.000000 4.099999 0.184304
v -0.058579 4.200000 0.058579
v -0.141421 4.000000 0.141421
v -0.100000 4.173204 0.100000
v -0.130323 4.099999 0.130323
v -0.082843 4.200000 0.000000
v -0.200000 4.000000 -0.000000
v -0.141421 4.173204 0.000000
v -0.184304 4.099999 0.000000
v -0.058579 4.200000 -0.058579
v -0.141421 4.000000 -0.141421
v -0.100000 4.173204 -0.100000
v -0.130323 4.099999 -0.130323
v 0.100000 3.300000 -1.526667
v -0.100000 3.300000 -1.526667
vt 0.650427 0.764413
vt 0.650427 0.977491
vt 0.568886 0.977491
vt 0.568886 0.764413
vt 0.719555 0.506317
vt 0.719555 0.719395
vt 0.644220 0.719395
vt 0.644220 0.506317
vt 0.568886 0.719395
vt 0.568886 0.506317
vt 0.961379 0.022509
vt 0.961379 0.235587
vt 0.886044 0.235587
vt 0.886044 0.022509
vt 0.810710 0.235587
vt 0.810710 0.022509
vt 0.915242 0.506317
vt 0.915242 0.719395
vt 0.839907 0.719395
vt 0.839907 0.506317
vt 0.810496 0.461298
vt 0.810496 0.461298
vt 0.810496 0.461298
vt 0.810496 0.461298
vt 0.764573 0.719395
vt 0.764573 0.506317
vt 0.708086 0.764413
vt 0.708086 0.977491
vt 0.765692 0.080196
vt 0.765692 0.161733
vt 0.708049 0.219376
vt 0.626529 0.219358
vt 0.568886 0.161690
vt 0.568886 0.080152
vt 0.626529 0.022509
vt 0.708049 0.022527
vt 0.810496 0.461298
vt 0.810496 0.461298
vt 0.810496 0.461298
vt 0.810496 0.461298
vt 0.810496 0.461298
vt 0.810496 0.461298
vt 0.810496 0.461298
vt 0.810496 0.461298
vt 0.810496 0.461298
vt 0.810496 0.461298
vt 0.810496 0.461298
vt 0.810496 0.461298
vt 0.707343 0.345688
vt 0.707343 0.379456
vt 0.683493 0.403360
vt 0.649763 0.403398
vt 0.625913 0.379547
vt 0.625913 0.345779
vt 0.649763 0.321875
vt 0.683493 0.321838
vt 0.765478 0.321975
vt 0.765478 0.403498
vt 0.757486 0.400193
vt 0.757486 0.325068
vt 0.736208 0.391393
vt 0.736208 0.333748
vt 0.707897 0.264395
vt 0.704425 0.272007
vt 0.695492 0.293032
vt 0.626466 0.264486
vt 0.629385 0.272091
vt 0.637912 0.293097
vt 0.568886 0.322196
vt 0.576323 0.325271
vt 0.597197 0.333904
vt 0.568886 0.403718
vt 0.576323 0.400396
vt 0.597197 0.391549
vt 0.626466 0.461298
vt 0.629385 0.453457
vt 0.637912 0.432264
vt 0.707897 0.461207
vt 0.704425 0.453373
vt 0.695492 0.432200
vt 0.829812 0.870952
vt 0.753104 0.870952
vt 0.753104 0.764413
vt 0.829812 0.764413
vt 0.447255 0.786716
vt 0.523867 0.022509
vt 0.523867 0.790546
vt 0.402236 0.790546
vt 0.325624 0.786716
vt 0.402236 0.022509
vt 0.129048 0.022510
vt 0.129048 0.790531
vt 0.022509 0.790531
vt 0.022509 0.022509
vt 0.280606 0.790307
vt 0.174067 0.790307
vt 0.174067 0.022509
vt 0.280606 0.022509
vn 0.3827 0.0000 -0.9239
vn 0.9239 0.0000 -0.3827
vn 0.9239 0.0000 0.3827
vn 0.3827 0.0000 0.9239
vn -0.3827 0.0000 0.9239
vn -0.9239 0.0000 0.3827
vn 0.0000 0.0000 1.0000
vn -0.9239 0.0000 -0.3827
vn -0.3827 0.0000 -0.9239
vn 0.0000 -1.0000 0.0000
vn 0.0000 1.0000 -0.0000
vn 0.3787 0.1435 -0.9143
vn 0.3366 0.4760 -0.8125
vn 0.1698 0.8962 -0.4099
vn 0.9143 0.1435 -0.3787
vn 0.8125 0.4760 -0.3366
vn 0.4099 0.8962 -0.1698
vn 0.9143 0.1435 0.3787
vn 0.8125 0.4760 0.3366
vn 0.4099 0.8962 0.1698
vn 0.3787 0.1435 0.9143
vn 0.3366 0.4760 0.8125
vn 0.1698 0.8962 0.4099
vn -0.3787 0.1435 0.9143
vn -0.3366 0.4760 0.8125
vn -0.1698 0.8962 0.4099
vn -0.9143 0.1435 0.3787
vn -0.8125 0.4760 0.3366
vn -0.4099 0.8962 0.1698
vn -0.9143 0.1435 -0.3787
vn -0.8125 0.4760 -0.3366
vn -0.4099 0.8962 -0.1698
vn -0.3787 0.1435 -0.9143
vn -0.3366 0.4760 -0.8125
vn -0.1698 0.8962 -0.4099
vn 1.0000 0.0000 0.0000
vn -1.0000 0.0000 0.0000
vn 0.0000 0.8944 -0.4472
vn 0.0000 -0.8944 -0.4472
usemtl Material.001
s off
f 1/1/1 2/2/1 4/3/1 3/4/1
f 3/5/2 4/6/2 6/7/2 5/8/2
f 5/8/3 6/7/3 8/9/3 7/10/3
f 7/11/4 8/12/4 10/13/4 9/14/4
f 9/14/5 10/13/5 12/15/5 11/16/5
f 11/17/6 12/18/6 14/19/6 13/20/6
f 16/21/7 14/22/7 46/23/7 50/24/7
f 13/20/8 14/19/8 16/25/8 15/26/8
f 15/27/9 16/28/9 2/2/9 1/1/9
f 1/29/10 3/30/10 5/31/10 7/32/10 9/33/10 11/34/10 13/35/10 15/36/10
f 6/37/7 4/38/7 22/39/7 30/40/7
f 12/41/7 10/42/7 38/43/7 42/44/7
f 2/45/7 16/21/7 50/24/7 25/46/7
f 14/22/7 12/41/7 42/44/7 46/23/7
f 8/47/7 6/37/7 30/40/7 34/48/7
f 21/49/11 26/50/11 49/51/11 45/52/11 41/53/11 37/54/11 33/55/11 29/56/11
f 10/42/7 8/47/7 34/48/7 38/43/7
f 22/57/12 25/58/12 27/59/12 24/60/12
f 24/60/13 27/59/13 28/61/13 23/62/13
f 23/62/14 28/61/14 26/50/14 21/49/14
f 30/63/15 22/57/15 24/60/15 32/64/15
f 32/64/16 24/60/16 23/62/16 31/65/16
f 31/65/17 23/62/17 21/49/17 29/56/17
f 34/66/18 30/63/18 32/64/18 36/67/18
f 36/67/19 32/64/19 31/65/19 35/68/19
f 35/68/20 31/65/20 29/56/20 33/55/20
f 38/69/21 34/66/21 36/67/21 40/70/21
f 40/70/22 36/67/22 35/68/22 39/71/22
f 39/71/23 35/68/23 33/55/23 37/54/23
f 42/72/24 38/69/24 40/70/24 44/73/24
f 44/73/25 40/70/25 39/71/25 43/74/25
f 43/74/26 39/71/26 37/54/26 41/53/26
f 46/75/27 42/72/27 44/73/27 48/76/27
f 48/76/28 44/73/28 43/74/28 47/77/28
f 47/77/29 43/74/29 41/53/29 45/52/29
f 50/78/30 46/75/30 48/76/30 52/79/30
f 52/79/31 48/76/31 47/77/31 51/80/31
f 51/80/32 47/77/32 45/52/32 49/51/32
f 25/58/33 50/78/33 52/79/33 27/59/33
f 27/59/34 52/79/34 51/80/34 28/61/34
f 28/61/35 51/80/35 49/51/35 26/50/35
f 4/38/7 2/45/7 25/46/7 22/39/7
f 18/81/7 17/82/7 19/83/7 20/84/7
f 18/85/36 53/86/36 17/87/36
f 20/88/37 19/89/37 54/90/37
f 54/91/38 19/92/38 17/93/38 53/94/38
f 18/95/39 20/96/39 54/97/39 53/98/39
