# Blender v3.1.2 OBJ File: 'Key.blend'
# www.blender.org
mtllib Key.mtl
o Cylinder
v 3.743993 -0.074231 0.100000
v 3.143993 -0.074231 0.100000
v 2.543993 -0.082479 0.100000
v 1.943993 -0.082479 0.100000
v 3.743993 0.098974 0.100000
v 3.143993 0.098974 0.100000
v 2.543993 0.090726 0.100000
v 1.943993 0.090726 0.100000
v 3.743993 -0.074231 0.700000
v 3.743993 0.098974 0.700000
v 2.543993 -0.082479 0.550000
v 1.943993 -0.082479 0.550000
v 2.543993 0.090727 0.550000
v 1.943993 0.090726 0.550000
v 3.543993 -0.074231 0.700000
v 3.543993 0.098974 0.700000
v 3.543993 0.098974 0.400000
v 3.343993 0.098974 0.400000
v 3.343993 -0.074231 0.400000
v 3.543993 -0.074231 0.400000
v 3.143993 0.098974 0.550000
v 3.143993 -0.074231 0.550000
v 3.343993 -0.074231 0.550000
v 3.343993 0.098974 0.550000
v 2.343993 -0.082479 0.550000
v 2.143993 -0.082479 0.550000
v 2.343993 0.090726 0.550000
v 2.143993 0.090726 0.550000
v 2.343993 0.090726 0.325000
v 2.143993 0.090726 0.325000
v 2.343993 -0.082479 0.325000
v 2.143993 -0.082479 0.325000
v 1.118431 0.173205 -0.100000
v 1.118431 0.173205 0.100000
v 1.166589 0.173205 0.000000
v 1.155872 0.195458 0.000000
v 0.944370 0.243732 0.000000
v 0.774758 0.108471 0.000000
v 0.774758 -0.108471 0.000000
v 0.944370 -0.243732 0.000000
v 1.155872 -0.195458 0.000000
v 0.779362 0.000000 -0.977289
v 0.720675 0.195458 -0.903698
v 0.588805 0.243732 -0.738338
v 0.483053 0.108471 -0.605730
v 0.483053 -0.108471 -0.605730
v 0.588805 -0.243732 -0.738338
v 0.720675 -0.195458 -0.903698
v -0.278151 0.000000 -1.218660
v -0.257206 0.195458 -1.126892
v -0.210142 0.243732 -0.920692
v -0.172400 0.108471 -0.755333
v -0.172400 -0.108471 -0.755333
v -0.210142 -0.243732 -0.920692
v -0.257206 -0.195458 -1.126892
v -1.126211 0.000000 -0.542355
v -1.041405 0.195458 -0.501514
v -0.850848 0.243732 -0.409747
v -0.698033 0.108471 -0.336155
v -0.698033 -0.108471 -0.336155
v -0.850848 -0.243732 -0.409747
v -1.041405 -0.195458 -0.501514
v -1.126211 0.000000 0.542354
v -1.041405 0.195458 0.501514
v -0.850848 0.243732 0.409746
v -0.698033 0.108471 0.336155
v -0.698033 -0.108471 0.336155
v -0.850848 -0.243732 0.409746
v -1.041405 -0.195458 0.501514
v -0.278151 0.000000 1.218660
v -0.257206 0.195458 1.126892
v -0.210142 0.243732 0.920692
v -0.172400 0.108471 0.755333
v -0.172400 -0.108471 0.755333
v -0.210142 -0.243732 0.920692
v -0.257206 -0.195458 1.126892
v 0.779362 0.000000 0.977290
v 0.720674 0.195458 0.903698
v 0.588804 0.243732 0.738338
v 0.483053 0.108471 0.605730
v 0.483053 -0.108471 0.605730
v 0.588804 -0.243732 0.738338
v 0.720674 -0.195458 0.903698
v 1.153685 0.000000 -0.200000
v 1.118431 0.173205 -0.100000
v 1.166589 0.173205 0.000000
v 1.166589 -0.173205 0.000000
v 1.118431 -0.173205 -0.100000
v 1.153685 0.000000 0.200000
v 1.118431 0.173205 0.100000
v 1.118431 -0.173205 0.100000
v 2.143993 0.090726 0.100000
v 3.543993 0.098974 0.100000
v 3.343993 0.098974 0.100000
v 2.343993 0.090726 0.100000
v 3.543993 -0.074231 0.100000
v 2.343993 -0.082479 0.100000
v 3.343993 -0.074231 0.100000
v 2.143993 -0.082479 0.100000
v 3.761959 0.000000 -0.200000
v 4.018997 0.000000 -0.002132
v 3.890478 0.000000 -0.173491
v 3.984560 0.000000 -0.101066
v 3.761959 -0.173205 -0.100000
v 4.018997 -0.001846 -0.001066
v 3.890478 -0.150247 -0.086745
v 3.984560 -0.087526 -0.050533
v 4.018997 -0.001846 0.001066
v 3.761959 -0.173205 0.100000
v 3.984560 -0.087526 0.050533
v 3.890478 -0.150247 0.086745
v 3.761959 0.000000 0.200000
v 4.018997 0.000000 0.002132
v 3.890478 0.000000 0.173491
v 3.984560 0.000000 0.101066
v 4.018997 0.001847 0.001066
v 3.761959 0.173205 0.100000
v 3.984560 0.087526 0.050533
v 3.890478 0.150247 0.086745
v 4.018997 0.001847 -0.001066
v 3.761959 0.173205 -0.100000
v 3.984560 0.087526 -0.050533
v 3.890478 0.150248 -0.086745
vt 0.090438 0.399068
vt 0.281457 0.497305
vt 0.600664 0.571429
vt 0.587023 0.698022
vt 0.000000 0.000000
vt 0.000000 0.000000
vt 0.000000 0.000000
vt 0.000000 0.000000
vt 0.666667 0.920833
vt 0.666667 0.954166
vt 0.333333 0.954166
vt 0.333333 0.920833
vt 0.333333 0.887499
vt 0.333333 0.854166
vt 0.000000 0.000000
vt 0.000000 0.000000
vt 0.666667 0.720833
vt 0.666667 0.754166
vt 0.333333 0.754166
vt 0.333333 0.720833
vt 0.333333 0.920833
vt 0.333333 0.887499
vt 0.666667 0.887499
vt 0.666667 0.920833
vt 0.666667 0.887499
vt 0.666667 0.654166
vt 0.666667 0.687499
vt 0.333333 0.687499
vt 0.333333 0.654166
vt 0.714286 0.714286
vt 0.571429 0.714286
vt 0.571429 0.698022
vt 0.714286 0.571429
vt 0.714286 0.857143
vt 0.571429 0.857143
vt 0.714286 1.000000
vt 0.571429 1.000000
vt 0.571429 -0.000000
vt 0.714286 -0.000000
vt 0.714286 0.142857
vt 0.571429 0.142857
vt 0.714286 0.285714
vt 0.571429 0.285714
vt 0.714286 0.428571
vt 0.571429 0.428571
vt 0.571429 0.444836
vt 0.587023 0.444836
vt 0.857143 0.571429
vt 0.857143 0.714286
vt 0.857143 0.857143
vt 0.857143 1.000000
vt 0.857143 -0.000000
vt 0.857143 0.142857
vt 0.857143 0.285714
vt 0.857143 0.428571
vt 1.000000 0.571429
vt 1.000000 0.714286
vt 1.000000 0.857143
vt 1.000000 1.000000
vt 1.000000 -0.000000
vt 1.000000 0.142857
vt 1.000000 0.285714
vt 1.000000 0.428571
vt -0.000000 0.571429
vt 0.142857 0.571429
vt 0.142857 0.714286
vt -0.000000 0.714286
vt 0.142857 0.857143
vt -0.000000 0.857143
vt 0.142857 1.000000
vt -0.000000 1.000000
vt -0.000000 -0.000000
vt 0.142857 -0.000000
vt 0.142857 0.142857
vt -0.000000 0.142857
vt 0.142857 0.285714
vt -0.000000 0.285714
vt 0.142857 0.428571
vt -0.000000 0.428571
vt 0.285714 0.571429
vt 0.285714 0.714286
vt 0.285714 0.857143
vt 0.285714 1.000000
vt 0.285714 -0.000000
vt 0.285714 0.142857
vt 0.285714 0.285714
vt 0.285714 0.428571
vt 0.428571 0.571429
vt 0.428571 0.714286
vt 0.428571 0.857143
vt 0.428571 1.000000
vt 0.428571 -0.000000
vt 0.428571 0.142857
vt 0.428571 0.285714
vt 0.428571 0.428571
vt 0.542193 0.571429
vt 0.555834 0.698022
vt 0.555834 0.444836
vt 0.000000 0.000000
vt 0.000000 0.000000
vt 0.000000 0.000000
vt 0.000000 0.000000
vt 0.000000 0.000000
vt 0.000000 0.000000
vt 0.000000 0.000000
vt 0.000000 0.000000
vt 0.000000 0.000000
vt 0.000000 0.000000
vt 0.000000 0.000000
vt 0.000000 0.000000
vt 0.000000 0.000000
vt 0.000000 0.000000
vt 0.000000 0.000000
vt 0.000000 0.000000
vt 0.466529 0.157900
vt 0.276212 0.060364
vt 0.252216 0.251279
vt 0.250000 0.252559
vt 0.247784 0.251279
vt 0.247784 0.248721
vt 0.250000 0.247441
vt 0.252216 0.248721
vt 0.469293 0.376632
vt 0.000000 0.000000
vt 0.000000 0.000000
vt 0.038418 0.118480
vt 0.038418 0.337212
vt 0.000000 0.000000
vt 0.087674 0.180336
vt 0.355031 0.189360
vt 0.355031 0.310640
vt 0.455827 0.147957
vt 0.457130 0.369909
vt 0.144969 0.189360
vt 0.250000 0.128721
vt 0.077687 0.147217
vt 0.263152 0.042551
vt 0.250000 0.371279
vt 0.265646 0.486247
vt 0.144969 0.310640
vt 0.040286 0.338803
vt 0.040286 0.139041
vt 0.079198 0.391357
vn -0.0000 0.5000 -0.8660
vn 0.0000 0.0000 1.0000
vn -1.0000 0.0000 0.0000
vn 1.0000 0.0000 0.0000
vn 0.8265 0.3980 -0.3980
vn 0.2213 0.9694 -0.1066
vn -0.5972 0.7488 0.2876
vn -0.9010 0.0000 0.4339
vn -0.5972 -0.7488 0.2876
vn 0.2213 -0.9694 -0.1066
vn 0.8265 -0.3980 -0.3980
vn 0.2041 0.3980 -0.8944
vn 0.0546 0.9694 -0.2394
vn -0.1475 0.7488 0.6462
vn -0.2225 0.0000 0.9749
vn -0.1475 -0.7488 0.6462
vn 0.0546 -0.9694 -0.2394
vn 0.2041 -0.3980 -0.8944
vn -0.5720 0.3980 -0.7172
vn -0.1531 0.9694 -0.1920
vn 0.4132 0.7488 0.5182
vn 0.6235 0.0000 0.7818
vn 0.4132 -0.7488 0.5182
vn -0.1531 -0.9694 -0.1920
vn -0.5720 -0.3980 -0.7172
vn -0.9174 0.3980 -0.0000
vn -0.2456 0.9694 -0.0000
vn 0.6628 0.7488 0.0000
vn 0.6628 -0.7488 0.0000
vn -0.2456 -0.9694 -0.0000
vn -0.9174 -0.3980 -0.0000
vn -0.5720 0.3980 0.7172
vn -0.1531 0.9694 0.1920
vn 0.4132 0.7488 -0.5182
vn 0.6235 0.0000 -0.7818
vn 0.4132 -0.7488 -0.5182
vn -0.1531 -0.9694 0.1920
vn -0.5720 -0.3980 0.7172
vn 0.2041 0.3980 0.8944
vn 0.0546 0.9694 0.2394
vn -0.1475 0.7488 -0.6462
vn -0.2225 0.0000 -0.9749
vn -0.1475 -0.7488 -0.6462
vn 0.0546 -0.9694 0.2394
vn 0.2041 -0.3980 0.8944
vn 0.8265 0.3980 0.3980
vn 0.2213 0.9694 0.1066
vn -0.5972 0.7488 -0.2876
vn -0.9010 0.0000 -0.4339
vn -0.5972 -0.7488 -0.2876
vn 0.2213 -0.9694 0.1066
vn 0.8265 -0.3980 0.3980
vn 0.0000 -0.0000 -1.0000
vn -0.0000 1.0000 -0.0000
vn 0.0000 -1.0000 0.0000
vn 0.0000 -0.5000 0.8660
vn 1.0000 -0.0001 0.0000
vn -0.0000 0.5000 0.8660
vn 0.9279 -0.3729 0.0000
vn 0.5547 -0.8321 0.0000
vn 0.1758 -0.9844 0.0000
vn 0.9279 0.1865 0.3230
vn 0.5547 0.4160 0.7206
vn 0.1758 0.4922 0.8525
vn 0.9279 -0.1865 -0.3230
vn 0.5547 -0.4160 -0.7206
vn 0.1758 -0.4922 -0.8525
vn 0.9279 -0.1865 0.3230
vn 0.5547 -0.4160 0.7206
vn 0.1758 -0.4922 0.8525
vn 0.9279 0.3729 0.0000
vn 0.5547 0.8321 0.0000
vn 0.1758 0.9844 0.0000
vn 0.1758 0.4922 -0.8525
vn 0.5547 0.4160 -0.7206
vn 0.9279 0.1865 -0.3230
vn 0.0000 -0.5000 -0.8660
usemtl None
s off
f 121/1/1 100/2/1 84/3/1 85/4/1
f 30/5/2 32/6/2 31/7/2 29/8/2
f 15/9/2 9/10/2 10/11/2 16/12/2
f 24/13/2 21/14/2 22/15/2 23/16/2
f 25/17/2 11/18/2 13/19/2 27/20/2
f 17/21/2 18/22/2 19/23/2 20/24/2
f 20/24/3 15/9/3 16/12/3 17/21/3
f 19/23/4 18/22/4 24/13/4 23/25/4
f 12/26/2 26/27/2 28/28/2 14/29/2
f 29/8/3 31/7/3 25/17/3 27/20/3
f 30/5/4 28/28/4 26/27/4 32/6/4
f 43/30/5 36/31/5 86/32/5 85/4/5 84/3/5 42/33/5
f 36/31/6 43/30/6 44/34/6 37/35/6
f 37/35/7 44/34/7 45/36/7 38/37/7
f 38/38/8 45/39/8 46/40/8 39/41/8
f 39/41/9 46/40/9 47/42/9 40/43/9
f 40/43/10 47/42/10 48/44/10 41/45/10
f 87/46/11 41/45/11 48/44/11 42/33/11 84/3/11 88/47/11
f 42/33/12 49/48/12 50/49/12 43/30/12
f 43/30/13 50/49/13 51/50/13 44/34/13
f 44/34/14 51/50/14 52/51/14 45/36/14
f 45/39/15 52/52/15 53/53/15 46/40/15
f 46/40/16 53/53/16 54/54/16 47/42/16
f 47/42/17 54/54/17 55/55/17 48/44/17
f 48/44/18 55/55/18 49/48/18 42/33/18
f 49/48/19 56/56/19 57/57/19 50/49/19
f 50/49/20 57/57/20 58/58/20 51/50/20
f 51/50/21 58/58/21 59/59/21 52/51/21
f 52/52/22 59/60/22 60/61/22 53/53/22
f 53/53/23 60/61/23 61/62/23 54/54/23
f 54/54/24 61/62/24 62/63/24 55/55/24
f 55/55/25 62/63/25 56/56/25 49/48/25
f 56/64/26 63/65/26 64/66/26 57/67/26
f 57/67/27 64/66/27 65/68/27 58/69/27
f 58/69/28 65/68/28 66/70/28 59/71/28
f 59/72/4 66/73/4 67/74/4 60/75/4
f 60/75/29 67/74/29 68/76/29 61/77/29
f 61/77/30 68/76/30 69/78/30 62/79/30
f 62/79/31 69/78/31 63/65/31 56/64/31
f 63/65/32 70/80/32 71/81/32 64/66/32
f 64/66/33 71/81/33 72/82/33 65/68/33
f 65/68/34 72/82/34 73/83/34 66/70/34
f 66/73/35 73/84/35 74/85/35 67/74/35
f 67/74/36 74/85/36 75/86/36 68/76/36
f 68/76/37 75/86/37 76/87/37 69/78/37
f 69/78/38 76/87/38 70/80/38 63/65/38
f 70/80/39 77/88/39 78/89/39 71/81/39
f 71/81/40 78/89/40 79/90/40 72/82/40
f 72/82/41 79/90/41 80/91/41 73/83/41
f 73/84/42 80/92/42 81/93/42 74/85/42
f 74/85/43 81/93/43 82/94/43 75/86/43
f 75/86/44 82/94/44 83/95/44 76/87/44
f 76/87/45 83/95/45 77/88/45 70/80/45
f 86/32/46 36/31/46 78/89/46 77/88/46 89/96/46 90/97/46
f 78/89/47 36/31/47 37/35/47 79/90/47
f 79/90/48 37/35/48 38/37/48 80/91/48
f 80/92/49 38/38/49 39/41/49 81/93/49
f 81/93/50 39/41/50 40/43/50 82/94/50
f 82/94/51 40/43/51 41/45/51 83/95/51
f 77/88/52 83/95/52 41/45/52 87/46/52 91/98/52 89/96/52
f 4/99/53 8/100/53 7/101/53 3/102/53
f 6/103/53 5/104/53 1/105/53 2/106/53
f 21/14/3 6/103/3 2/106/3 22/15/3
f 24/13/54 18/22/54 94/107/54 6/103/54 21/14/54
f 17/21/54 93/108/54 94/107/54 18/22/54
f 16/12/54 10/11/54 5/104/54 93/108/54 17/21/54
f 28/28/54 30/5/54 92/109/54 8/100/54 14/29/54
f 92/109/54 30/5/54 29/8/54 95/110/54
f 27/20/54 13/19/54 7/101/54 95/110/54 29/8/54
f 12/26/3 14/29/3 8/100/3 4/99/3
f 4/99/55 99/111/55 32/6/55 26/27/55 12/26/55
f 97/112/55 31/7/55 32/6/55 99/111/55
f 3/102/55 11/18/55 25/17/55 31/7/55 97/112/55
f 13/19/4 11/18/4 3/102/4 7/101/4
f 10/11/4 9/10/4 1/105/4 5/104/4
f 15/9/55 20/24/55 96/113/55 1/105/55 9/10/55
f 98/114/55 96/113/55 20/24/55 19/23/55
f 22/15/55 2/106/55 98/114/55 19/23/55 23/25/55
f 109/115/56 112/116/56 89/96/56 91/98/56
f 105/117/57 101/118/57 120/119/57 116/120/57 113/121/57 108/122/57
f 109/115/55 91/98/55 87/46/55 88/47/55 104/123/55
f 35/124/54 34/125/54 117/126/54 121/127/54 33/128/54
f 117/129/58 90/97/58 89/96/58 112/116/58
f 105/117/59 108/122/59 110/130/59 107/131/59
f 107/131/60 110/130/60 111/132/60 106/133/60
f 106/133/61 111/132/61 109/115/61 104/123/61
f 113/121/62 116/120/62 118/134/62 115/135/62
f 115/135/63 118/134/63 119/136/63 114/137/63
f 114/137/64 119/136/64 117/129/64 112/116/64
f 101/118/65 105/117/65 107/131/65 103/138/65
f 103/138/66 107/131/66 106/133/66 102/139/66
f 102/139/67 106/133/67 104/123/67 100/2/67
f 108/122/68 113/121/68 115/135/68 110/130/68
f 110/130/69 115/135/69 114/137/69 111/132/69
f 111/132/70 114/137/70 112/116/70 109/115/70
f 116/120/71 120/119/71 122/140/71 118/134/71
f 118/134/72 122/140/72 123/141/72 119/142/72
f 119/142/73 123/141/73 121/127/73 117/126/73
f 100/2/74 121/1/74 123/143/74 102/139/74
f 102/139/75 123/143/75 122/140/75 103/138/75
f 103/138/76 122/140/76 120/119/76 101/118/76
f 104/123/77 88/47/77 84/3/77 100/2/77
