# Blender v3.1.2 OBJ File: 'Money.blend'
# www.blender.org
mtllib Money.mtl
o Cube_Cube.001
v -3.000000 0.000000 2.000000
v -3.000000 0.600000 2.000000
v -3.000000 0.000000 -2.000000
v -3.000000 0.600000 -2.000000
v 3.000000 0.000000 2.000000
v 3.000000 0.600000 2.000000
v 3.000000 0.000000 -2.000000
v 3.000000 0.600000 -2.000000
v 0.600000 0.000000 -2.000000
v -0.600000 0.000000 -2.000000
v -0.600000 0.600000 -2.000000
v 0.600000 0.600000 -2.000000
v -0.600000 0.000000 2.000000
v 0.600000 0.000000 2.000000
v 0.600000 0.600000 2.000000
v -0.600000 0.600000 2.000000
v 0.600000 -0.156254 -2.000000
v -0.600000 -0.156254 -2.000000
v -0.600000 0.756254 -2.000000
v 0.600000 0.756254 -2.000000
v -0.600000 -0.156254 2.000000
v 0.600000 -0.156254 2.000000
v 0.600000 0.756254 2.000000
v -0.600000 0.756254 2.000000
v -0.600000 0.000000 2.130000
v 0.600000 0.000000 2.130000
v 0.600000 0.600000 2.130000
v -0.600000 0.600000 2.130000
v 0.600000 0.000000 -2.130000
v -0.600000 0.000000 -2.130000
v -0.600000 0.600000 -2.130000
v 0.600000 0.600000 -2.130000
v 0.600000 0.756254 2.000000
v 0.600000 0.600000 2.130000
v -0.600000 0.600000 2.130000
v -0.600000 0.756254 2.000000
v -0.600000 -0.156254 2.000000
v -0.600000 0.000000 2.130000
v 0.600000 0.000000 2.130000
v 0.600000 -0.156254 2.000000
v 0.600000 -0.156254 -2.000000
v 0.600000 0.000000 -2.130000
v -0.600000 0.000000 -2.130000
v -0.600000 -0.156254 -2.000000
v -0.600000 0.756254 -2.000000
v -0.600000 0.600000 -2.130000
v 0.600000 0.600000 -2.130000
v 0.600000 0.756254 -2.000000
vt 0.246937 0.385024
vt 0.044000 0.541323
vt 0.044000 0.428000
vt 0.247118 0.277173
vt 0.044008 0.428003
vt 0.247079 0.277211
vt 0.246969 0.385008
vt 0.044031 0.541308
vt 0.515723 0.343669
vt 0.515875 0.454875
vt 0.247000 0.384938
vt 0.247185 0.277195
vt 0.707454 0.392135
vt 0.956267 0.454506
vt 0.956542 0.569546
vt 0.706967 0.504558
vt 0.247159 0.384913
vt 0.516143 0.454833
vt 0.313151 0.613093
vt 0.043808 0.541528
vt 0.706956 0.504528
vt 0.956519 0.569425
vt 0.753026 0.725844
vt 0.504227 0.661766
vt 0.158677 0.603308
vt 0.158677 0.603308
vt 0.158677 0.603308
vt 0.158677 0.603308
vt 0.246897 0.384989
vt 0.247175 0.277190
vt 0.515723 0.343691
vt 0.515855 0.454892
vt 0.552160 0.435762
vt 0.606866 0.449985
vt 0.603072 0.464163
vt 0.548594 0.449995
vt 0.707461 0.392113
vt 0.956273 0.454497
vt 0.956542 0.569540
vt 0.707010 0.504555
vt 0.665355 0.465220
vt 0.679840 0.410606
vt 0.681607 0.411096
vt 0.667126 0.465675
vt 0.753748 0.725794
vt 0.504186 0.660818
vt 0.707547 0.504569
vt 0.956546 0.568617
vt 0.628928 0.382206
vt 0.625134 0.396384
vt 0.623364 0.395929
vt 0.623124 0.395834
vt 0.628681 0.382142
vt 0.312787 0.613000
vt 0.043713 0.543158
vt 0.246788 0.385000
vt 0.516075 0.456500
vt 0.518635 0.461131
vt 0.698767 0.506488
vt 0.498440 0.658756
vt 0.324607 0.614658
vt 0.504955 0.482692
vt 0.678293 0.510692
vt 0.504293 0.655384
vt 0.342955 0.611384
vt 0.610650 0.450998
vt 0.661562 0.479398
vt 0.607084 0.465230
vt 0.683406 0.396374
vt 0.621350 0.395371
vt 0.566645 0.381149
vt 0.570438 0.366971
vt 0.624916 0.381139
vt 0.703338 0.393308
vt 0.697338 0.488000
vt 0.532000 0.450000
vt 0.526000 0.355308
vt 0.683653 0.396438
vt 0.681615 0.411065
vt 0.625163 0.381203
vt 0.623125 0.395830
vt 0.623117 0.395861
vt 0.667366 0.465770
vt 0.661809 0.479462
vt 0.608636 0.450440
vt 0.608876 0.450535
vt 0.603319 0.464227
vt 0.158677 0.603308
vt 0.158677 0.603308
vt 0.158677 0.603308
vt 0.158677 0.603308
vt 0.158677 0.603308
vt 0.158677 0.603308
vt 0.158677 0.603308
vt 0.158677 0.603308
vt 0.606837 0.465166
vt 0.608875 0.450539
vt 0.608883 0.450508
vt 0.704677 0.395308
vt 0.692677 0.486000
vt 0.527338 0.450000
vt 0.531338 0.363308
vt 0.548347 0.449931
vt 0.550385 0.435304
vt 0.550393 0.435273
vt 0.158677 0.603308
vt 0.158677 0.603308
vt 0.158677 0.603308
vt 0.158677 0.603308
vt 0.564874 0.380694
vt 0.564634 0.380599
vt 0.570191 0.366907
vt 0.658719 0.536526
vt 0.701593 0.503768
vt 0.516385 0.458417
vt 0.476031 0.494955
vt 0.158677 0.603308
vt 0.158677 0.603308
vt 0.158677 0.603308
vt 0.158677 0.603308
vt 0.512015 0.475308
vt 0.677354 0.505308
vt 0.593354 0.572616
vt 0.456015 0.538616
vt 0.158677 0.603308
vt 0.158677 0.603308
vt 0.158677 0.603308
vt 0.158677 0.603308
vt 0.510677 0.479308
vt 0.668015 0.515308
vt 0.526015 0.614616
vt 0.410677 0.582616
vt 0.158677 0.603308
vt 0.158677 0.603308
vt 0.158677 0.603308
vt 0.158677 0.603308
vt 0.532692 0.610616
vt 0.407354 0.584616
vt 0.513354 0.495308
vt 0.650692 0.517308
vt 0.158677 0.603308
vt 0.158677 0.603308
vt 0.158677 0.603308
vt 0.158677 0.603308
vn -1.0000 0.0000 0.0000
vn 1.0000 0.0000 0.0000
vn 0.0000 0.0000 -1.0000
vn 0.0000 0.0000 1.0000
vn 0.0000 -1.0000 0.0000
vn 0.0000 1.0000 0.0000
vn 0.0000 0.6396 0.7687
vn 0.0000 -0.6396 0.7687
vn 0.0000 -0.6396 -0.7687
vn 0.0000 0.6396 -0.7687
usemtl Material.001
s off
f 1/1/1 2/2/1 4/3/1 3/4/1
f 7/5/2 8/6/2 6/7/2 5/8/2
f 3/9/3 4/10/3 11/11/3 10/12/3
f 5/13/4 6/14/4 15/15/4 14/16/4
f 3/17/5 10/18/5 13/19/5 1/20/5
f 9/21/5 7/22/5 5/23/5 14/24/5
f 17/25/4 18/26/4 44/27/4 41/28/4
f 13/29/4 16/30/4 2/31/4 1/32/4
f 9/33/2 14/34/2 22/35/2 17/36/2
f 9/37/3 12/38/3 8/39/3 7/40/3
f 16/41/1 13/42/1 25/43/1 28/44/1
f 8/45/6 12/46/6 15/47/6 6/48/6
f 18/49/1 10/50/1 30/51/1 43/52/1 44/53/1
f 11/54/6 4/55/6 2/56/6 16/57/6
f 20/58/6 19/59/6 24/60/6 23/61/6
f 18/62/5 17/63/5 22/64/5 21/65/5
f 11/66/1 16/41/1 24/67/1 19/68/1
f 13/42/1 10/50/1 18/49/1 21/69/1
f 15/70/2 12/71/2 20/72/2 23/73/2
f 26/74/4 27/75/4 28/76/4 25/77/4
f 13/42/1 21/69/1 37/78/1 38/79/1 25/43/1
f 15/70/2 23/73/2 33/80/2 34/81/2 27/82/2
f 24/67/1 16/41/1 28/44/1 35/83/1 36/84/1
f 22/35/2 14/34/2 26/85/2 39/86/2 40/87/2
f 26/88/4 25/89/4 38/90/4 39/91/4
f 14/34/2 15/70/2 27/82/2 26/85/2
f 28/92/4 27/93/4 34/94/4 35/95/4
f 11/66/1 19/68/1 45/96/1 46/97/1 31/98/1
f 30/99/3 31/100/3 32/101/3 29/102/3
f 9/33/2 17/36/2 41/103/2 42/104/2 29/105/2
f 10/50/1 11/66/1 31/98/1 30/51/1
f 32/106/4 31/107/4 46/108/4 47/109/4
f 20/72/2 12/71/2 32/110/2 47/111/2 48/112/2
f 12/71/2 9/33/2 29/105/2 32/110/2
f 33/113/7 36/114/7 35/115/7 34/116/7
f 23/117/4 24/118/4 36/119/4 33/120/4
f 37/121/8 40/122/8 39/123/8 38/124/8
f 21/125/4 22/126/4 40/127/4 37/128/4
f 41/129/9 44/130/9 43/131/9 42/132/9
f 30/133/4 29/134/4 42/135/4 43/136/4
f 45/137/10 48/138/10 47/139/10 46/140/10
f 19/141/4 20/142/4 48/143/4 45/144/4
