# Blender v3.1.2 OBJ File: 'Pearl Texture.blend'
# www.blender.org
mtllib Pearl.mtl
o Sphere
v 0.000000 1.148050 2.771638
v 0.000000 2.121320 2.121320
v 0.000000 2.771638 1.148050
v 0.000000 3.000000 0.000000
v 0.000000 2.771639 -1.148050
v 0.000000 2.121320 -2.121320
v 0.000000 1.148051 -2.771638
v 1.009216 0.584116 2.731159
v 1.664327 1.250453 2.065324
v 2.092612 1.689164 1.109290
v 2.241433 1.842090 -0.000000
v 2.092612 1.689164 -1.109289
v 1.664327 1.250453 -2.065324
v 1.009216 0.584116 -2.731159
v 1.009216 -0.584117 2.731159
v 1.664327 -1.250454 2.065324
v 2.092612 -1.689164 1.109289
v 2.241433 -1.842090 -0.000000
v 2.092612 -1.689164 -1.109290
v 1.664327 -1.250453 -2.065324
v 1.009216 -0.584116 -2.731159
v 0.000000 -1.148051 2.771638
v 0.000000 -2.121320 2.121320
v 0.000000 -2.771639 1.148050
v 0.000000 -3.000000 -0.000000
v 0.000000 -2.771639 -1.148050
v 0.000000 -2.121320 -2.121320
v 0.000000 -1.148051 -2.771638
v 0.431408 -0.000001 2.950871
v -0.811794 -0.811795 2.771638
v -1.500000 -1.500000 2.121320
v -1.959844 -1.959845 1.148050
v -2.121320 -2.121320 -0.000000
v -1.959845 -1.959845 -1.148050
v -1.500000 -1.500000 -2.121320
v -0.811794 -0.811795 -2.771638
v -1.148051 -0.000000 2.771638
v -2.121320 -0.000000 2.121320
v -2.771638 -0.000000 1.148050
v -3.000000 -0.000000 -0.000000
v -2.771639 -0.000000 -1.148050
v -2.121320 -0.000000 -2.121320
v -1.148051 -0.000000 -2.771638
v 0.431408 -0.000000 -2.950871
v -0.811794 0.811794 2.771638
v -1.500000 1.499999 2.121320
v -1.959844 1.959844 1.148050
v -2.121320 2.121320 -0.000000
v -1.959845 1.959844 -1.148050
v -1.500000 1.500000 -2.121320
v -0.811794 0.811794 -2.771638
v 0.811794 0.811794 2.771638
v 1.500000 1.500000 2.121320
v 1.959845 1.959844 1.148050
v 2.121320 2.121320 -0.000000
v 1.959845 1.959845 -1.148050
v 1.500000 1.500000 -2.121320
v 0.811794 0.811794 -2.771638
v 0.811794 -0.811795 2.771638
v 1.500000 -1.500000 2.121320
v 1.959845 -1.959845 1.148050
v 2.121320 -2.121321 -0.000000
v 1.959845 -1.959845 -1.148050
v 1.500000 -1.500000 -2.121320
v 0.811794 -0.811795 -2.771638
v -0.000000 -0.000001 3.000000
v 0.000000 -0.000000 -3.000000
v 0.809216 0.584116 -2.731159
v 1.464327 1.250453 -2.065324
v 1.892612 1.689164 -1.109289
v 2.041433 1.842090 -0.000000
v 0.809216 0.584116 2.731159
v 1.892612 -1.689164 -1.109290
v 2.041433 -1.842090 -0.000000
v 1.892612 -1.689164 1.109289
v 1.464327 -1.250454 2.065324
v 0.809216 -0.584117 2.731159
v 0.809216 -0.584116 -2.731159
v 1.464327 -1.250453 -2.065324
v 0.231408 -0.000001 2.950871
v 0.231408 -0.000000 -2.950871
v 1.066954 0.284603 -2.675716
v 1.677439 0.922102 -1.989298
v 2.064874 1.333272 -1.057579
v 2.197404 1.475094 -0.000000
v 2.064874 1.333272 1.057579
v 1.677439 0.922101 1.989298
v 1.066954 0.284602 2.675716
v 2.064874 -1.333272 -1.057579
v 2.197404 -1.475094 -0.000000
v 2.064874 -1.333272 1.057579
v 1.677439 -0.922102 1.989298
v 1.066954 -0.284603 2.675716
v 1.066954 -0.284603 -2.675716
v 1.677439 -0.922102 -1.989298
v 0.797349 -0.000000 2.884613
v 0.797349 -0.000000 -2.884613
v 0.809216 0.584116 2.731159
v 2.041433 1.842090 -0.000000
v 1.892612 1.689164 -1.109289
v 1.464327 1.250453 -2.065324
v 0.809216 0.584116 -2.731159
v 0.809216 -0.584117 2.731159
v 1.464327 -1.250454 2.065324
v 1.892612 -1.689164 1.109289
v 2.041433 -1.842090 -0.000000
v 1.892612 -1.689164 -1.109290
v 1.464327 -1.250453 -2.065324
v 0.809216 -0.584116 -2.731159
v 0.231408 -0.000001 2.950871
v 0.231408 -0.000000 -2.950871
v 1.621320 -0.000000 -2.121320
v 0.648051 -0.000000 -2.771638
v 2.271639 -0.000000 -1.148050
v 2.500000 -0.000000 -0.000000
v 2.271639 -0.000000 1.148050
v 1.621320 -0.000000 2.121320
v 0.648051 -0.000000 2.771638
v 0.766954 0.284603 -2.675716
v 1.377439 0.922102 -1.989298
v 1.764874 1.333272 -1.057579
v 1.897404 1.475094 -0.000000
v 1.764874 1.333272 1.057579
v 1.377439 0.922101 1.989298
v 0.766954 0.284602 2.675716
v 1.764874 -1.333272 -1.057579
v 1.897404 -1.475094 -0.000000
v 1.764874 -1.333272 1.057579
v 1.377439 -0.922102 1.989298
v 0.766954 -0.284603 2.675716
v 0.766954 -0.284603 -2.675716
v 1.377439 -0.922102 -1.989298
v 2.385819 -0.000000 -0.574025
v 2.385819 -0.000000 0.574025
v 2.198702 -0.737547 -0.000000
v 2.442910 -0.000000 -0.287013
v 2.198702 0.737547 -0.000000
v 2.442910 -0.000000 0.287012
vt 0.375582 0.174755
vt 0.404854 0.237508
vt 0.357824 0.237508
vt 0.142513 0.363634
vt 0.151534 0.414005
vt 0.028700 0.422004
vt 0.048500 0.369756
vt 0.156209 0.478730
vt 0.155828 0.547955
vt 0.032994 0.555954
vt 0.023255 0.487388
vt 0.552344 0.443488
vt 0.499966 0.461344
vt 0.463214 0.424698
vt 0.484435 0.375776
vt 0.441185 0.290707
vt 0.354284 0.290707
vt 0.150447 0.611141
vt 0.056434 0.617263
vt 0.437511 0.485677
vt 0.428509 0.423206
vt 0.446252 0.419301
vt 0.427684 0.462498
vt 0.419318 0.442986
vt 0.382410 0.445474
vt 0.397402 0.435958
vt 0.345883 0.875810
vt 0.366777 0.872996
vt 0.389483 0.929844
vt 0.370048 0.934287
vt 0.406734 0.654529
vt 0.424646 0.657630
vt 0.389483 0.695151
vt 0.370048 0.690624
vt 0.345883 0.744939
vt 0.366777 0.748226
vt 0.358942 0.809965
vt 0.337457 0.809651
vt 0.324568 0.148761
vt 0.357824 0.112001
vt 0.053802 0.272296
vt 0.029515 0.210719
vt 0.145601 0.210719
vt 0.142650 0.272296
vt 0.023255 0.141767
vt 0.035975 0.075939
vt 0.152060 0.075939
vt 0.148905 0.141767
vt 0.320490 0.442987
vt 0.374487 0.461073
vt 0.374487 0.512784
vt 0.320490 0.538538
vt 0.092417 0.317124
vt 0.140501 0.317124
vt 0.065737 0.023255
vt 0.154585 0.023255
vt 0.267614 0.087040
vt 0.273980 0.153784
vt 0.411239 0.549429
vt 0.388398 0.606249
vt 0.354284 0.058802
vt 0.441185 0.058802
vt 0.404854 0.112001
vt 0.261154 0.221820
vt 0.243026 0.031752
vt 0.231091 0.280792
vt 0.502632 0.126725
vt 0.438110 0.148761
vt 0.615337 0.040684
vt 0.680029 0.023255
vt 0.669748 0.120370
vt 0.605838 0.130406
vt 0.748501 0.030576
vt 0.810327 0.061532
vt 0.803056 0.130203
vt 0.739002 0.120299
vt 0.463214 0.549542
vt 0.479042 0.023255
vt 0.559328 0.112001
vt 0.484435 0.606456
vt 0.810327 0.225986
vt 0.748501 0.245445
vt 0.499966 0.513055
vt 0.438110 0.200748
vt 0.559328 0.237508
vt 0.502632 0.222784
vt 0.680029 0.255827
vt 0.552344 0.539038
vt 0.615337 0.255553
vt 0.479042 0.326254
vt 0.269705 0.487388
vt 0.260684 0.555954
vt 0.256390 0.422004
vt 0.230701 0.617263
vt 0.467009 0.372764
vt 0.871482 0.414808
vt 0.843857 0.473012
vt 0.828416 0.470039
vt 0.857416 0.410682
vt 0.834229 0.539076
vt 0.818232 0.538444
vt 0.843857 0.603884
vt 0.828416 0.605483
vt 0.871482 0.658471
vt 0.857416 0.660950
vt 0.342458 0.280787
vt 0.344418 0.229532
vt 0.330338 0.428793
vt 0.354655 0.938258
vt 0.329369 0.878615
vt 0.320490 0.810110
vt 0.329369 0.743171
vt 0.354655 0.687990
vt 0.392497 0.652966
vt 0.355487 0.184522
vt 0.320490 0.165676
vt 0.864976 0.600818
vt 0.890810 0.654148
vt 0.336826 0.214468
vt 0.339062 0.192807
vt 0.913459 0.694980
vt 0.930905 0.692065
vt 0.325167 0.183355
vt 0.890810 0.419455
vt 0.864976 0.476047
vt 0.856069 0.538990
vt 0.917515 0.037052
vt 0.899964 0.039700
vt 0.913615 0.023255
vt 0.923340 0.028503
vt 0.905789 0.320483
vt 0.875376 0.272544
vt 0.892927 0.269896
vt 0.923340 0.317836
vt 0.489250 0.706024
vt 0.524604 0.655066
vt 0.541904 0.652966
vt 0.506550 0.703924
vt 0.858498 0.213218
vt 0.876049 0.210571
vt 0.471156 0.767054
vt 0.488456 0.764954
vt 0.856837 0.149633
vt 0.874388 0.146986
vt 0.471521 0.830568
vt 0.488821 0.828468
vt 0.870917 0.089289
vt 0.888467 0.086642
vt 0.489952 0.889073
vt 0.507252 0.886973
vt 0.524604 0.935539
vt 0.541904 0.933439
vt 0.598854 0.718435
vt 0.606194 0.700794
vt 0.610907 0.703922
vt 0.610256 0.730106
vt 0.610907 0.794200
vt 0.599505 0.782529
vt 0.136739 0.701677
vt 0.152665 0.755482
vt 0.137050 0.747185
vt 0.121124 0.693380
vt 0.424646 0.973305
vt 0.406734 0.976745
vt 0.913459 0.372764
vt 0.930905 0.376390
vt 0.207639 0.703848
vt 0.235255 0.663773
vt 0.237808 0.720188
vt 0.199175 0.720188
vt 0.598854 0.508860
vt 0.599764 0.445297
vt 0.675476 0.433045
vt 0.679347 0.467209
vt 0.618268 0.385902
vt 0.670481 0.372830
vt 0.122620 0.674763
vt 0.130064 0.678273
vt 0.647818 0.618727
vt 0.615474 0.569074
vt 0.692529 0.567411
vt 0.701992 0.621107
vt 0.641036 0.505116
vt 0.681283 0.484291
vt 0.074613 0.768707
vt 0.033940 0.743598
vt 0.023255 0.729505
vt 0.074613 0.712572
vt 0.683218 0.501373
vt 0.685546 0.517882
vt 0.726330 0.372764
vt 0.756012 0.426301
vt 0.137050 0.663773
vt 0.152665 0.672070
vt 0.771722 0.550079
vt 0.755880 0.605589
vt 0.727470 0.494608
vt 0.024925 0.711211
vt 0.045404 0.663773
vt 0.710165 0.654284
vt 0.725721 0.647239
vt 0.687874 0.534392
vt 0.771722 0.487844
vn 0.0805 0.1945 -0.9776
vn 0.3256 0.7862 -0.5253
vn 0.3764 0.9087 0.1807
vn 0.2243 0.5414 0.8103
vn 0.2243 0.5414 -0.8103
vn 0.3764 0.9087 -0.1807
vn 0.3256 0.7862 0.5253
vn 0.0805 0.1945 0.9776
vn 0.3499 0.1173 0.9294
vn 0.3499 -0.1173 0.9294
vn 0.9282 0.0874 0.3617
vn 0.7537 0.0521 -0.6551
vn 0.9878 0.1062 -0.1138
vn 0.0805 -0.1945 -0.9776
vn 0.3256 -0.7862 -0.5253
vn 0.3764 -0.9087 0.1807
vn 0.2243 -0.5414 0.8103
vn 0.2243 -0.5414 -0.8103
vn 0.3764 -0.9087 -0.1807
vn 0.3256 -0.7862 0.5253
vn 0.0805 -0.1945 0.9776
vn -0.3764 -0.9087 0.1807
vn -0.2243 -0.5414 0.8103
vn -0.2243 -0.5414 -0.8103
vn -0.3764 -0.9087 -0.1807
vn -0.3256 -0.7862 0.5253
vn -0.0805 -0.1945 0.9776
vn -0.0805 -0.1945 -0.9776
vn -0.3256 -0.7862 -0.5253
vn -0.5414 -0.2243 -0.8103
vn -0.9087 -0.3764 -0.1807
vn -0.7862 -0.3256 0.5253
vn -0.1945 -0.0805 0.9776
vn -0.1945 -0.0805 -0.9776
vn -0.7862 -0.3256 -0.5253
vn -0.9087 -0.3764 0.1807
vn -0.5414 -0.2243 0.8103
vn -0.7862 0.3256 0.5253
vn -0.1945 0.0805 0.9776
vn -0.1945 0.0805 -0.9776
vn -0.7862 0.3256 -0.5253
vn -0.9087 0.3764 0.1807
vn -0.5414 0.2243 0.8103
vn -0.5414 0.2243 -0.8103
vn -0.9087 0.3764 -0.1807
vn -0.0805 0.1945 -0.9776
vn -0.3256 0.7862 -0.5253
vn -0.3764 0.9087 0.1807
vn -0.2243 0.5414 0.8103
vn -0.2243 0.5414 -0.8103
vn -0.3764 0.9087 -0.1807
vn -0.3256 0.7862 0.5253
vn -0.0805 0.1945 0.9776
vn 0.5399 0.2466 0.8048
vn 0.7785 0.3497 0.5212
vn 0.8986 0.4006 0.1793
vn 0.8986 0.4006 -0.1793
vn 0.7785 0.3497 -0.5212
vn 0.5399 0.2466 -0.8048
vn 0.5399 -0.2466 0.8048
vn 0.7785 -0.3497 0.5212
vn 0.8986 -0.4006 0.1793
vn 0.8986 -0.4006 -0.1793
vn 0.7785 -0.3497 -0.5212
vn 0.5399 -0.2466 -0.8048
vn 0.1853 0.1283 0.9743
vn 0.1853 0.1283 -0.9743
vn 0.1853 -0.1283 0.9743
vn 0.1853 -0.1283 -0.9743
vn 0.9282 -0.0874 -0.3617
vn 0.3499 0.1173 -0.9294
vn 0.7537 -0.0521 -0.6551
vn 0.3499 -0.1173 -0.9294
vn 0.9282 -0.0874 0.3617
vn 0.9878 -0.1062 0.1138
vn 0.9878 -0.1062 -0.1138
vn 0.2011 -0.5656 -0.7998
vn 0.0000 -0.9149 0.4037
vn 0.0000 0.7327 0.6805
vn 0.0000 -0.9911 0.1329
vn 0.0000 0.9149 0.4037
vn 0.0000 -0.9911 -0.1329
vn 0.0000 0.9911 0.1329
vn 0.0000 -0.9149 -0.4037
vn 0.0000 0.9911 -0.1329
vn -0.0000 -0.7327 -0.6805
vn 0.0000 0.9149 -0.4037
vn 0.2011 0.5656 -0.7998
vn 0.0000 0.7327 -0.6805
vn -0.0000 -0.7327 0.6805
vn 0.9878 0.1062 0.1138
vn 0.7537 0.0521 0.6551
vn 0.7537 -0.0521 0.6551
vn 0.9282 0.0874 -0.3617
vn 0.5803 0.2088 -0.7872
vn 0.9155 0.3647 0.1701
vn 0.8025 0.3170 0.5056
vn 0.2011 -0.5656 0.7998
vn 0.8025 0.3170 -0.5056
vn 0.9104 0.3719 0.1811
vn 0.5803 0.2088 0.7872
vn 0.9104 0.3719 -0.1811
vn 0.8025 -0.3170 0.5056
vn 0.2011 0.5656 0.7998
vn 0.8025 -0.3170 -0.5056
vn 0.9104 -0.3719 -0.1811
vn 0.5803 -0.2088 0.7872
vn 0.5803 -0.2088 -0.7872
vn 0.9155 0.3647 -0.1701
vn 0.9104 -0.3719 0.1811
vn 0.9155 -0.3647 -0.1701
vn 0.9155 -0.3647 0.1701
usemtl Material.001
s off
f 67/1/1 7/2/1 58/3/1
f 6/4/2 5/5/2 56/6/2 57/7/2
f 4/8/3 3/9/3 54/10/3 55/11/3
f 2/12/4 1/13/4 52/14/4 53/15/4
f 7/2/5 6/16/5 57/17/5 58/3/5
f 5/5/6 4/8/6 55/11/6 56/6/6
f 3/9/7 2/18/7 53/19/7 54/10/7
f 1/13/8 66/20/8 52/14/8
f 88/21/9 8/22/9 29/23/9 96/24/9
f 15/25/10 93/26/10 96/24/10 29/23/10
f 17/27/11 91/28/11 92/29/11 16/30/11
f 21/31/12 94/32/12 95/33/12 20/34/12
f 19/35/13 89/36/13 90/37/13 18/38/13
f 67/1/14 65/39/14 28/40/14
f 64/41/15 63/42/15 26/43/15 27/44/15
f 62/45/16 61/46/16 24/47/16 25/48/16
f 60/49/17 59/50/17 22/51/17 23/52/17
f 65/53/18 64/41/18 27/44/18 28/54/18
f 63/42/19 62/45/19 25/48/19 26/43/19
f 61/46/20 60/55/20 23/56/20 24/47/20
f 59/50/21 66/20/21 22/51/21
f 25/48/22 24/47/22 32/57/22 33/58/22
f 23/52/23 22/51/23 30/59/23 31/60/23
f 28/40/24 27/61/24 35/62/24 36/63/24
f 26/43/25 25/48/25 33/58/25 34/64/25
f 24/47/26 23/56/26 31/65/26 32/57/26
f 22/51/27 66/20/27 30/59/27
f 67/1/28 28/40/28 36/63/28
f 27/44/29 26/43/29 34/64/29 35/66/29
f 36/63/30 35/62/30 42/67/30 43/68/30
f 34/69/31 33/70/31 40/71/31 41/72/31
f 32/73/32 31/74/32 38/75/32 39/76/32
f 30/59/33 66/20/33 37/77/33
f 67/1/34 36/63/34 43/68/34
f 35/62/35 34/78/35 41/79/35 42/67/35
f 33/70/36 32/73/36 39/76/36 40/71/36
f 31/60/37 30/59/37 37/77/37 38/80/37
f 39/76/38 38/75/38 46/81/38 47/82/38
f 37/77/39 66/20/39 45/83/39
f 67/1/40 43/68/40 51/84/40
f 42/67/41 41/79/41 49/85/41 50/86/41
f 40/71/42 39/76/42 47/82/42 48/87/42
f 38/80/43 37/77/43 45/83/43 46/88/43
f 43/68/44 42/67/44 50/86/44 51/84/44
f 41/72/45 40/71/45 48/87/45 49/89/45
f 67/1/46 51/84/46 7/2/46
f 50/86/47 49/85/47 5/90/47 6/16/47
f 48/91/48 47/92/48 3/9/48 4/8/48
f 46/88/49 45/83/49 1/13/49 2/12/49
f 51/84/50 50/86/50 6/16/50 7/2/50
f 49/93/51 48/91/51 4/8/51 5/5/51
f 47/92/52 46/94/52 2/18/52 3/9/52
f 45/83/53 66/20/53 1/13/53
f 8/22/54 9/95/54 53/15/54 52/14/54
f 9/96/55 10/97/55 54/98/55 53/99/55
f 10/97/56 11/100/56 55/101/56 54/98/56
f 11/100/57 12/102/57 56/103/57 55/101/57
f 12/102/58 13/104/58 57/105/58 56/103/58
f 13/106/59 14/107/59 58/3/59 57/17/59
f 16/108/60 15/25/60 59/50/60 60/49/60
f 17/27/61 16/30/61 60/109/61 61/110/61
f 18/38/62 17/27/62 61/110/62 62/111/62
f 19/35/63 18/38/63 62/111/63 63/112/63
f 20/34/64 19/35/64 63/112/64 64/113/64
f 21/31/65 20/34/65 64/113/65 65/114/65
f 29/23/66 8/22/66 52/14/66 66/20/66
f 14/107/67 44/115/67 67/1/67 58/3/67
f 15/25/68 29/23/68 66/20/68 59/50/68
f 44/115/69 21/116/69 65/39/69 67/1/69
f 13/104/70 12/102/70 84/117/70 83/118/70
f 44/115/71 14/107/71 82/119/71 97/120/71
f 14/121/72 13/104/72 83/118/72 82/122/72
f 44/115/73 97/120/73 94/123/73 21/116/73
f 87/124/74 86/125/74 10/97/74 9/96/74
f 11/100/75 10/97/75 86/125/75 85/126/75
f 12/102/76 11/100/76 85/126/76 84/117/76
f 125/127/77 88/128/77 96/129/77 118/130/77
f 83/131/78 84/132/78 121/133/78 120/134/78
f 95/135/79 94/136/79 131/137/79 132/138/79
f 84/132/80 85/139/80 122/140/80 121/133/80
f 89/141/81 95/135/81 132/138/81 126/142/81
f 85/139/82 86/143/82 123/144/82 122/140/82
f 90/145/83 89/141/83 126/142/83 127/146/83
f 86/143/84 87/147/84 124/148/84 123/144/84
f 91/149/85 90/145/85 127/146/85 128/150/85
f 87/147/86 88/128/86 125/127/86 124/148/86
f 92/151/87 91/149/87 128/150/87 129/152/87
f 130/153/88 118/154/88 96/155/88 93/156/88
f 93/156/89 92/157/89 129/158/89 130/153/89
f 82/159/90 83/160/90 120/161/90 119/162/90
f 18/38/91 90/37/91 91/28/91 17/27/91
f 16/30/92 92/29/92 93/163/92 15/164/92
f 87/124/93 9/96/93 8/165/93 88/166/93
f 20/34/94 95/33/94 89/36/94 19/35/94
f 119/167/95 120/168/95 112/169/95 113/170/95
f 122/171/96 123/172/96 116/173/96 134/174/96
f 123/172/97 124/175/97 117/176/97 116/173/97
f 119/162/98 113/177/98 97/178/98 82/159/98
f 120/179/99 121/180/99 114/181/99 112/182/99
f 137/183/100 122/171/100 134/174/100 138/184/100
f 124/185/101 125/186/101 118/187/101 117/188/101
f 137/183/102 115/189/102 136/190/102
f 116/173/103 117/176/103 129/191/103 128/192/103
f 131/193/104 94/194/104 97/178/104 113/177/104
f 112/182/105 114/181/105 126/195/105 132/196/105
f 135/197/106 136/190/106 115/189/106
f 117/188/107 118/187/107 130/198/107 129/199/107
f 113/200/108 112/182/108 132/196/108 131/201/108
f 121/180/109 122/171/109 133/202/109 114/181/109
f 138/184/110 134/174/110 127/203/110 135/197/110
f 126/195/111 114/181/111 133/202/111 127/203/111
f 134/174/112 116/173/112 128/192/112 127/203/112
f 122/171/102 137/183/102 136/190/102 133/202/102
f 127/203/106 133/202/106 136/190/106 135/197/106
f 115/189/110 138/184/110 135/197/110
f 115/189/100 137/183/100 138/184/100
l 103 77
l 76 104
l 111 81
l 102 68
l 98 72
l 80 110
l 101 69
l 78 109
l 100 70
l 79 108
l 99 71
l 73 107
l 105 75
l 74 106
