# Blender v3.1.2 OBJ File: 'PlaneCube.blend'
# www.blender.org
mtllib PlaneCube.mtl
o Plane
v -20.000000 0.000000 20.000000
v 20.000000 0.000000 20.000000
v -20.000000 0.000000 -20.000000
v 20.000000 0.000000 -20.000000
vt 0.000000 0.000000
vt 1.000000 0.000000
vt 1.000000 1.000000
vt 0.000000 1.000000
vn 0.0000 1.0000 0.0000
usemtl Material.001
s off
f 1/1/1 2/2/1 4/3/1 3/4/1
o Plane.001
v -20.000000 -40.000000 -20.000000
v -19.999998 -40.000000 20.000000
v -20.000002 0.000000 -20.000000
v -20.000000 0.000000 20.000000
vt 0.000000 0.000000
vt 1.000000 0.000000
vt 1.000000 1.000000
vt 0.000000 1.000000
vn -1.0000 0.0000 0.0000
usemtl Material.002
s off
f 5/5/2 6/6/2 8/7/2 7/8/2
o Plane.002
v 20.000002 -40.000000 20.000000
v 19.999996 -40.000000 -20.000000
v 20.000004 0.000000 20.000000
v 19.999998 0.000000 -20.000000
vt 0.000000 0.000000
vt 1.000000 0.000000
vt 1.000000 1.000000
vt 0.000000 1.000000
vn 1.0000 0.0000 -0.0000
usemtl Material.003
s off
f 9/9/3 10/10/3 12/11/3 11/12/3
o Plane.003
v 19.999994 -40.000008 -20.000000
v -20.000006 -39.999992 -20.000000
v 20.000006 -0.000006 -20.000000
v -19.999994 0.000006 -20.000000
vt 0.000000 0.000000
vt 1.000000 0.000000
vt 1.000000 1.000000
vt 0.000000 1.000000
vn 0.0000 0.0000 -1.0000
usemtl Material.004
s off
f 13/13/4 14/14/4 16/15/4 15/16/4
o Plane.004
v -19.999989 -40.000011 20.000008
v 20.000011 -39.999989 19.999994
v -20.000011 -0.000011 20.000006
v 19.999989 0.000011 19.999992
vt 0.000000 0.000000
vt 1.000000 0.000000
vt 1.000000 1.000000
vt 0.000000 1.000000
vn 0.0000 0.0000 1.0000
usemtl Material.005
s off
f 17/17/5 18/18/5 20/19/5 19/20/5
o Plane.005
v -20.000000 -40.000008 -20.000000
v 20.000000 -40.000008 -20.000000
v -20.000000 -39.999992 20.000000
v 20.000000 -39.999992 20.000000
vt 0.000000 0.000000
vt 1.000000 0.000000
vt 1.000000 1.000000
vt 0.000000 1.000000
vn 0.0000 -1.0000 0.0000
usemtl Material.006
s off
f 21/21/6 22/22/6 24/23/6 23/24/6
