# Blender v3.1.2 OBJ File: 'Portal.blend'
# www.blender.org
mtllib Portal.mtl
o Cylinder
v -4.688772 -0.000000 -0.200000
v 3.277579 -5.110383 0.200000
v -3.277578 -5.110384 0.200000
v 3.277578 5.110384 -0.200000
v -0.000001 7.146810 -0.200000
v -4.688772 -0.000000 0.200000
v -0.000001 7.146810 0.200000
v 3.535534 -5.303300 -0.000000
v 3.277579 -5.110383 -0.200000
v 3.406557 -5.206842 -0.173205
v 3.500975 -5.277454 -0.100000
v 0.000001 -7.146810 -0.200000
v 0.000001 -7.452682 -0.100000
v 0.000001 -7.323405 -0.173205
v 4.688772 0.000001 -0.200000
v 5.000000 0.000001 -0.000000
v 4.844386 0.000001 -0.173205
v 4.958304 0.000001 -0.100000
v -0.000001 7.323405 -0.173205
v -0.000001 7.452682 -0.100000
v 3.500974 5.277455 -0.100000
v 3.406556 5.206842 -0.173205
v -3.277579 5.110384 -0.200000
v -3.535534 5.303301 0.000000
v -3.406556 5.206842 -0.173205
v -3.500974 5.277455 -0.100000
v -3.277578 -5.110384 -0.200000
v -3.535533 -5.303301 0.000000
v -3.406556 -5.206842 -0.173205
v -3.500974 -5.277455 -0.100000
v -4.958304 -0.000000 -0.100000
v -4.844386 -0.000000 -0.173205
v -3.406556 -5.206843 0.173205
v -3.500974 -5.277455 0.100000
v 0.000001 -7.500000 -0.000000
v 0.000001 -7.146810 0.200000
v 0.000001 -7.452682 0.100000
v 0.000001 -7.323405 0.173205
v 4.688772 0.000001 0.200000
v 4.844386 0.000001 0.173205
v 4.958304 0.000001 0.100000
v 3.535534 5.303301 -0.000000
v 3.277578 5.110384 0.200000
v 3.500974 5.277455 0.100000
v 3.406556 5.206842 0.173205
v -5.000000 -0.000000 0.000000
v -4.844386 -0.000000 0.173205
v -4.958304 -0.000000 0.100000
v 3.500975 -5.277454 0.100000
v 3.406557 -5.206842 0.173205
v -0.000001 7.500000 0.000000
v -0.000001 7.452682 0.100000
v -0.000001 7.323405 0.173205
v -3.277579 5.110384 0.200000
v -3.500974 5.277455 0.100000
v -3.406556 5.206842 0.173205
vt 0.290355 0.718547
vt 0.332852 0.352576
vt 0.501424 0.080408
vt 0.676491 0.061444
vt 0.771760 0.282754
vt 0.729663 0.647868
vt 0.561311 0.919029
vt 0.386197 0.939123
vt 0.333061 0.350742
vt 0.502187 0.079868
vt 0.677276 0.062006
vt 0.771960 0.283990
vt 0.728848 0.649237
vt 0.559721 0.920126
vt 0.384626 0.937992
vt 0.289942 0.716016
vt 0.569943 0.946048
vt 0.376787 0.967730
vt 0.379329 0.960004
vt 0.567591 0.938390
vt 0.382583 0.950109
vt 0.564638 0.929280
vt 0.747200 0.660920
vt 0.742190 0.657191
vt 0.736321 0.652823
vt 0.493637 0.052740
vt 0.686851 0.033521
vt 0.684265 0.041214
vt 0.495965 0.060430
vt 0.680952 0.051068
vt 0.498892 0.069578
vt 0.746376 0.662398
vt 0.568272 0.947253
vt 0.565943 0.939564
vt 0.741368 0.658638
vt 0.563016 0.930416
vt 0.735503 0.654234
vt 0.685984 0.032899
vt 0.791325 0.276718
vt 0.785837 0.278542
vt 0.683420 0.040609
vt 0.779214 0.280526
vt 0.680137 0.050483
vt 0.492794 0.053322
vt 0.495145 0.061000
vt 0.498099 0.070134
vt 0.315531 0.337580
vt 0.320540 0.341340
vt 0.326406 0.345745
vt 0.270755 0.724626
vt 0.315273 0.339495
vt 0.320295 0.343232
vt 0.276254 0.722789
vt 0.326177 0.347610
vt 0.282889 0.720791
vt 0.791554 0.278073
vt 0.786057 0.279863
vt 0.779425 0.281807
vt 0.375050 0.966479
vt 0.377637 0.958785
vt 0.380949 0.948931
vt 0.270349 0.721933
vt 0.275844 0.720142
vt 0.282477 0.718198
vn -0.0000 -0.0000 -1.0000
vn 0.0000 0.0000 1.0000
vn 0.4897 -0.7881 -0.3729
vn 0.2927 -0.4712 -0.8321
vn 0.0928 -0.1494 -0.9844
vn 0.8944 -0.2470 -0.3729
vn 0.5347 -0.1476 -0.8321
vn 0.1695 -0.0468 -0.9844
vn -0.4897 -0.7881 0.3729
vn -0.2927 -0.4712 0.8321
vn -0.0928 -0.1494 0.9844
vn 0.8944 0.2470 0.3729
vn 0.5347 0.1477 0.8321
vn 0.1695 0.0468 0.9844
vn 0.4897 0.7881 -0.3729
vn 0.2927 0.4712 -0.8321
vn 0.0928 0.1494 -0.9844
vn -0.4897 0.7881 -0.3729
vn -0.2927 0.4712 -0.8321
vn -0.0928 0.1494 -0.9844
vn -0.8944 -0.2470 0.3729
vn -0.5347 -0.1476 0.8321
vn -0.1695 -0.0468 0.9844
vn -0.8944 -0.2470 -0.3729
vn -0.5347 -0.1477 -0.8321
vn -0.1695 -0.0468 -0.9844
vn -0.4897 -0.7881 -0.3729
vn -0.2927 -0.4712 -0.8321
vn -0.0928 -0.1494 -0.9844
vn 0.4897 -0.7881 0.3729
vn 0.2927 -0.4712 0.8321
vn 0.0928 -0.1494 0.9844
vn 0.8944 -0.2470 0.3729
vn 0.5347 -0.1477 0.8321
vn 0.1695 -0.0468 0.9844
vn 0.8944 0.2470 -0.3729
vn 0.5347 0.1477 -0.8321
vn 0.1695 0.0468 -0.9844
vn 0.4897 0.7881 0.3729
vn 0.2927 0.4712 0.8321
vn 0.0928 0.1494 0.9844
vn -0.4897 0.7881 0.3729
vn -0.2927 0.4712 0.8321
vn -0.0928 0.1494 0.9844
vn -0.8944 0.2470 0.3729
vn -0.5347 0.1476 0.8321
vn -0.1695 0.0468 0.9844
vn -0.8944 0.2470 -0.3729
vn -0.5347 0.1477 -0.8321
vn -0.1695 0.0468 -0.9844
usemtl Material.001
s off
f 27/1/1 1/2/1 23/3/1 5/4/1 4/5/1 15/6/1 9/7/1 12/8/1
f 6/9/2 3/10/2 36/11/2 2/12/2 39/13/2 43/14/2 7/15/2 54/16/2
f 8/17/3 35/18/3 13/19/3 11/20/3
f 11/20/4 13/19/4 14/21/4 10/22/4
f 10/22/5 14/21/5 12/8/5 9/7/5
f 16/23/6 8/17/6 11/20/6 18/24/6
f 18/24/7 11/20/7 10/22/7 17/25/7
f 17/25/8 10/22/8 9/7/8 15/6/8
f 28/26/9 35/27/9 37/28/9 34/29/9
f 34/29/10 37/28/10 38/30/10 33/31/10
f 33/31/11 38/30/11 36/11/11 3/10/11
f 16/32/12 42/33/12 44/34/12 41/35/12
f 41/35/13 44/34/13 45/36/13 40/37/13
f 40/37/14 45/36/14 43/14/14 39/13/14
f 51/38/15 42/39/15 21/40/15 20/41/15
f 20/41/16 21/40/16 22/42/16 19/43/16
f 19/43/17 22/42/17 4/5/17 5/4/17
f 24/44/18 51/38/18 20/41/18 26/45/18
f 26/45/19 20/41/19 19/43/19 25/46/19
f 25/46/20 19/43/20 5/4/20 23/3/20
f 46/47/21 28/26/21 34/29/21 48/48/21
f 48/48/22 34/29/22 33/31/22 47/49/22
f 47/49/23 33/31/23 3/10/23 6/9/23
f 28/50/24 46/51/24 31/52/24 30/53/24
f 30/53/25 31/52/25 32/54/25 29/55/25
f 29/55/26 32/54/26 1/2/26 27/1/26
f 35/18/27 28/50/27 30/53/27 13/19/27
f 13/19/28 30/53/28 29/55/28 14/21/28
f 14/21/29 29/55/29 27/1/29 12/8/29
f 35/27/30 8/56/30 49/57/30 37/28/30
f 37/28/31 49/57/31 50/58/31 38/30/31
f 38/30/32 50/58/32 2/12/32 36/11/32
f 8/56/33 16/32/33 41/35/33 49/57/33
f 49/57/34 41/35/34 40/37/34 50/58/34
f 50/58/35 40/37/35 39/13/35 2/12/35
f 42/39/36 16/23/36 18/24/36 21/40/36
f 21/40/37 18/24/37 17/25/37 22/42/37
f 22/42/38 17/25/38 15/6/38 4/5/38
f 42/33/39 51/59/39 52/60/39 44/34/39
f 44/34/40 52/60/40 53/61/40 45/36/40
f 45/36/41 53/61/41 7/15/41 43/14/41
f 51/59/42 24/62/42 55/63/42 52/60/42
f 52/60/43 55/63/43 56/64/43 53/61/43
f 53/61/44 56/64/44 54/16/44 7/15/44
f 24/62/45 46/47/45 48/48/45 55/63/45
f 55/63/46 48/48/46 47/49/46 56/64/46
f 56/64/47 47/49/47 6/9/47 54/16/47
f 46/51/48 24/44/48 26/45/48 31/52/48
f 31/52/49 26/45/49 25/46/49 32/54/49
f 32/54/50 25/46/50 23/3/50 1/2/50
