# Blender v3.1.2 OBJ File: 'Potion Texture.blend'
# www.blender.org
mtllib Potion.mtl
o Cylinder_Cylinder.001
v -0.490801 0.073090 0.283364
v -0.000000 0.914501 -0.224862
v -0.000000 0.073090 0.566728
v 0.194736 0.914501 -0.112431
v 0.490800 0.073091 0.283364
v 0.194736 0.914501 0.112431
v 0.490800 0.073091 -0.283364
v -0.000000 0.914501 0.224862
v -0.490801 0.073091 -0.283364
v -0.194736 0.914501 0.112431
v -0.000000 0.073091 -0.566728
v -0.194736 0.914501 -0.112431
v -0.319474 0.203082 0.184448
v -0.000000 0.360207 -0.291004
v 0.252017 0.360207 -0.145502
v -0.000000 0.203082 0.368896
v 0.252017 0.360207 0.145502
v 0.319473 0.203082 0.184448
v -0.000000 0.360207 0.291004
v -0.319474 0.203082 -0.184448
v -0.252017 0.360207 0.145502
v 0.319473 0.203082 -0.184448
v -0.252017 0.360207 -0.145502
v -0.000000 0.203082 -0.368896
v -0.000000 0.809335 -0.291004
v 0.252017 0.809335 -0.145502
v 0.252017 0.809335 0.145502
v -0.000000 0.809335 0.291004
v -0.252017 0.809335 0.145502
v -0.252017 0.809335 -0.145502
v 0.294813 0.914501 -0.170210
v 0.306157 0.892465 -0.176760
v -0.000000 0.892465 -0.353520
v -0.000000 0.914501 -0.340420
v -0.000000 0.831371 -0.353520
v -0.000000 0.809335 -0.340420
v 0.294813 0.914501 0.170210
v 0.306157 0.892465 0.176760
v -0.000000 0.914501 0.340420
v -0.000000 0.892465 0.353520
v -0.294813 0.914501 0.170210
v -0.306157 0.892465 0.176760
v -0.294813 0.914501 -0.170210
v -0.306157 0.892465 -0.176760
v 0.294813 0.809335 -0.170210
v 0.306157 0.831371 -0.176760
v 0.294813 0.809335 0.170210
v 0.306157 0.831371 0.176760
v -0.000000 0.809335 0.340420
v -0.000000 0.831371 0.353520
v -0.294813 0.809335 0.170210
v -0.306157 0.831371 0.176760
v -0.294813 0.809335 -0.170210
v -0.306157 0.831371 -0.176760
v -0.490801 0.073091 -0.283364
v -0.000000 0.073091 -0.566728
v -0.000000 0.073090 0.566728
v -0.490801 0.073090 0.283364
v 0.490800 0.073091 -0.283364
v 0.490800 0.073091 0.283364
v -0.677124 -0.234074 -0.390937
v -0.600366 -0.053145 -0.346621
v -0.000000 -0.053145 -0.693243
v -0.000000 -0.234074 -0.781875
v -0.696465 -0.432592 -0.402104
v -0.000000 -0.432592 -0.804208
v -0.654080 -0.613144 -0.377633
v -0.000000 -0.613144 -0.755266
v -0.677124 -0.234074 0.390937
v -0.600366 -0.053145 0.346621
v -0.696465 -0.432592 0.402104
v -0.654080 -0.613144 0.377633
v -0.000000 -0.234074 0.781875
v -0.000000 -0.053145 0.693243
v -0.000000 -0.432592 0.804208
v -0.000000 -0.613144 0.755266
v 0.677124 -0.234074 0.390938
v 0.600366 -0.053145 0.346621
v 0.696465 -0.432592 0.402104
v 0.654079 -0.613144 0.377633
v 0.677124 -0.234074 -0.390937
v 0.600366 -0.053145 -0.346621
v 0.696465 -0.432592 -0.402104
v 0.654079 -0.613144 -0.377633
v -0.000000 -0.804039 -0.679016
v -0.588045 -0.804039 -0.339508
v 0.588045 -0.804039 -0.339508
v 0.588045 -0.804039 0.339508
v -0.000000 -0.804039 0.679016
v -0.588045 -0.804039 0.339508
v -0.000000 -0.990270 -0.484085
v -0.000000 -0.969490 -0.529433
v 0.458502 -0.969490 -0.264716
v 0.419230 -0.990270 -0.242042
v -0.000000 -1.000000 -0.420942
v 0.364546 -1.000000 -0.210471
v 0.458502 -0.969490 0.264716
v 0.419230 -0.990270 0.242043
v 0.364546 -1.000000 0.210471
v -0.000000 -0.969490 0.529433
v -0.000000 -0.990270 0.484085
v -0.000000 -1.000000 0.420942
v -0.458502 -0.969490 0.264716
v -0.419230 -0.990270 0.242042
v -0.364547 -1.000000 0.210471
v -0.458502 -0.969490 -0.264716
v -0.419230 -0.990270 -0.242042
v -0.364547 -1.000000 -0.210471
vt 0.846334 0.702808
vt 0.801002 0.728980
vt 0.777706 0.715530
vt 0.846334 0.675907
vt 0.479729 0.881128
vt 0.479729 0.813387
vt 0.489691 0.807635
vt 0.489691 0.886880
vt 0.955301 0.066486
vt 0.969523 0.066486
vt 0.969523 0.148780
vt 0.955301 0.148780
vt 0.969761 0.189928
vt 0.955539 0.189928
vt 0.955539 0.025339
vt 0.969761 0.025339
vt 0.548368 0.764963
vt 0.562589 0.764963
vt 0.562351 0.806110
vt 0.548130 0.806110
vt 0.916440 0.579244
vt 0.879811 0.570178
vt 0.879811 0.502436
vt 0.916440 0.493370
vt 0.758128 0.154150
vt 0.794757 0.145083
vt 0.794953 0.178954
vt 0.758377 0.197087
vt 0.464045 0.450433
vt 0.464045 0.496485
vt 0.389676 0.539422
vt 0.349793 0.516396
vt 0.758128 0.068276
vt 0.794757 0.077342
vt 0.758377 0.025339
vt 0.794953 0.043471
vt 0.879615 0.468565
vt 0.916192 0.450433
vt 0.916192 0.622181
vt 0.879615 0.604049
vt 0.349793 0.648323
vt 0.389676 0.625296
vt 0.464045 0.668233
vt 0.464045 0.714286
vt 0.538414 0.625296
vt 0.578296 0.648323
vt 0.538414 0.539422
vt 0.578296 0.516396
vt 0.612037 0.355530
vt 0.612037 0.355530
vt 0.612037 0.355530
vt 0.612037 0.355530
vt 0.612037 0.355530
vt 0.612037 0.355530
vt 0.612037 0.355530
vt 0.612037 0.355530
vt 0.612037 0.355530
vt 0.612037 0.355530
vt 0.612037 0.355530
vt 0.612037 0.355530
vt 0.775065 0.604049
vt 0.775261 0.570178
vt 0.899307 0.145083
vt 0.899503 0.178954
vt 0.899307 0.077342
vt 0.899503 0.043471
vt 0.775261 0.502436
vt 0.775065 0.468565
vt 0.891666 0.781325
vt 0.891666 0.728980
vt 0.914963 0.715530
vt 0.914963 0.794775
vt 0.562351 0.888405
vt 0.548130 0.888405
vt 0.801002 0.781325
vt 0.777706 0.794775
vt 0.362396 0.813387
vt 0.362396 0.881128
vt 0.352434 0.886880
vt 0.352434 0.807635
vt 0.421062 0.914999
vt 0.421062 0.926503
vt 0.846334 0.807497
vt 0.846334 0.834398
vt 0.421063 0.779516
vt 0.421063 0.768012
vt 0.562589 0.929552
vt 0.548368 0.929552
vt 0.567490 0.807635
vt 0.567490 0.886880
vt 0.917603 0.714005
vt 0.917603 0.796300
vt 0.846334 0.672858
vt 0.974661 0.068011
vt 0.974661 0.147256
vt 0.775065 0.796300
vt 0.775065 0.714005
vt 0.846334 0.837447
vt 0.492332 0.888405
vt 0.421062 0.929552
vt 0.492332 0.806110
vt 0.950180 0.147256
vt 0.950180 0.068011
vt 0.349793 0.806110
vt 0.421063 0.764963
vt 0.349793 0.888405
vt 0.543009 0.886880
vt 0.543009 0.807635
vt 0.055494 0.670121
vt 0.025339 0.687531
vt 0.025339 0.529466
vt 0.055494 0.546876
vt 0.357102 0.291580
vt 0.401488 0.300455
vt 0.401996 0.388363
vt 0.357558 0.370613
vt 0.063753 0.291580
vt 0.108139 0.300455
vt 0.108647 0.388363
vt 0.064209 0.370613
vt 0.063753 0.133514
vt 0.108139 0.124639
vt 0.064209 0.054482
vt 0.108647 0.036732
vt 0.357558 0.054482
vt 0.401996 0.036732
vt 0.401488 0.124639
vt 0.357102 0.133514
vt 0.532355 0.051170
vt 0.531889 0.131859
vt 0.489712 0.121542
vt 0.490238 0.030537
vt 0.443485 0.118943
vt 0.444026 0.025339
vt 0.238540 0.293236
vt 0.239006 0.373925
vt 0.196888 0.394557
vt 0.196363 0.303552
vt 0.150676 0.399756
vt 0.150136 0.306152
vt 0.238540 0.131859
vt 0.196363 0.121542
vt 0.150136 0.118943
vt 0.239006 0.051170
vt 0.196888 0.030537
vt 0.150676 0.025339
vt 0.531889 0.293236
vt 0.532355 0.373925
vt 0.490238 0.394557
vt 0.489712 0.303552
vt 0.444026 0.399756
vt 0.443485 0.306152
vt 0.077366 0.559504
vt 0.162227 0.510509
vt 0.247089 0.559504
vt 0.247089 0.657493
vt 0.162227 0.706488
vt 0.077366 0.657493
vt 0.162227 0.485254
vt 0.162227 0.450433
vt 0.299116 0.529466
vt 0.268960 0.546876
vt 0.025339 0.150925
vt 0.025339 0.274170
vt 0.162227 0.731743
vt 0.162227 0.766564
vt 0.561360 0.146584
vt 0.561360 0.278510
vt 0.299116 0.687531
vt 0.268960 0.670121
vt 0.162227 0.495810
vt 0.064636 0.552154
vt 0.259818 0.552154
vt 0.259818 0.664843
vt 0.162227 0.721187
vt 0.064636 0.664843
vt 0.318688 0.150925
vt 0.318688 0.274170
vt 0.692726 0.025339
vt 0.707451 0.050844
vt 0.641488 0.165095
vt 0.612037 0.165095
vt 0.268011 0.146584
vt 0.268011 0.278510
vt 0.628974 0.590190
vt 0.658425 0.590190
vt 0.724388 0.704441
vt 0.709662 0.729947
vt 0.709662 0.450433
vt 0.724388 0.475938
vt 0.707451 0.279347
vt 0.692726 0.304852
vn 0.0000 1.0000 0.0000
vn 0.0000 -1.0000 0.0000
vn -0.5000 0.0000 0.8660
vn -1.0000 0.0000 0.0000
vn 0.5000 0.0000 0.8660
vn -0.5000 0.0000 -0.8660
vn 0.4594 0.3945 -0.7958
vn -0.9189 0.3945 0.0000
vn -0.3022 0.7966 -0.5235
vn -0.4594 0.3945 0.7958
vn 0.4594 0.3945 0.7958
vn 0.9189 0.3945 0.0000
vn -0.4594 0.3945 -0.7958
vn 0.6044 0.7966 0.0000
vn 0.3022 0.7966 0.5235
vn -0.3022 0.7966 0.5235
vn -0.6044 0.7966 0.0000
vn 0.3022 0.7966 -0.5235
vn 0.0000 0.0000 1.0000
vn 1.0000 0.0000 0.0000
vn 0.5000 0.0000 -0.8660
vn 0.4445 0.4577 -0.7700
vn 0.8891 0.4577 0.0000
vn 0.4445 0.4577 0.7700
vn -0.4446 0.4577 0.7700
vn -0.8891 0.4577 0.0000
vn -0.4445 0.4577 -0.7700
vn -0.4445 -0.4577 -0.7700
vn -0.8891 -0.4577 0.0000
vn -0.4445 -0.4577 0.7700
vn 0.4445 -0.4577 0.7700
vn 0.8891 -0.4577 0.0000
vn 0.4445 -0.4577 -0.7700
vn -0.3937 -0.6165 -0.6819
vn 0.9451 -0.3269 -0.0000
vn -0.9451 -0.3269 0.0000
vn -0.4725 -0.3269 0.8184
vn 0.4725 -0.3269 0.8184
vn -0.4725 -0.3269 -0.8184
vn -0.4603 0.3905 -0.7972
vn -0.4976 0.0970 -0.8619
vn -0.4868 -0.2285 -0.8431
vn -0.9206 0.3905 0.0000
vn -0.9953 0.0970 0.0000
vn -0.9735 -0.2285 0.0000
vn -0.4603 0.3905 0.7972
vn -0.4976 0.0970 0.8619
vn -0.4868 -0.2285 0.8431
vn 0.4603 0.3905 0.7972
vn 0.4976 0.0970 0.8619
vn 0.4868 -0.2285 0.8431
vn 0.9206 0.3905 0.0000
vn 0.9953 0.0970 0.0000
vn 0.9735 -0.2285 -0.0000
vn 0.4603 0.3905 -0.7972
vn 0.4976 0.0970 -0.8619
vn 0.4868 -0.2285 -0.8431
vn 0.4725 -0.3269 -0.8184
vn 0.7874 -0.6165 0.0000
vn -0.3937 -0.6165 0.6819
vn -0.7874 -0.6165 0.0000
vn 0.3776 0.6555 -0.6540
vn 0.3937 -0.6165 0.6819
vn 0.2338 -0.8839 -0.4050
vn 0.0876 -0.9845 -0.1517
vn 0.4677 -0.8839 0.0000
vn 0.1752 -0.9845 0.0000
vn 0.2338 -0.8839 0.4050
vn 0.0876 -0.9845 0.1517
vn -0.2338 -0.8839 0.4050
vn -0.0876 -0.9845 0.1517
vn -0.4677 -0.8839 0.0000
vn -0.1752 -0.9845 0.0000
vn -0.2338 -0.8839 -0.4050
vn -0.0876 -0.9845 -0.1517
vn 0.3937 -0.6165 -0.6819
vn -0.7552 0.6555 0.0000
vn -0.3776 0.6555 0.6540
vn 0.3776 0.6555 0.6540
vn 0.7552 0.6555 0.0000
vn -0.3776 0.6555 -0.6540
usemtl Material.002
s off
f 8/1/1 10/2/1 41/3/1 39/4/1
f 30/5/2 29/6/2 51/7/2 53/8/2
f 50/9/3 40/10/3 42/11/3 52/12/3
f 52/12/4 42/11/4 44/13/4 54/14/4
f 48/15/5 38/16/5 40/10/5 50/9/5
f 54/17/6 44/18/6 33/19/6 35/20/6
f 24/21/7 14/22/7 15/23/7 22/24/7
f 13/25/8 21/26/8 23/27/8 20/28/8
f 9/29/9 20/30/9 24/31/9 11/32/9
f 16/33/10 19/34/10 21/26/10 13/25/10
f 18/35/11 17/36/11 19/34/11 16/33/11
f 22/24/12 15/23/12 17/37/12 18/38/12
f 20/39/13 23/40/13 14/22/13 24/21/13
f 7/41/14 22/42/14 18/43/14 5/44/14
f 5/44/15 18/43/15 16/45/15 3/46/15
f 3/46/16 16/45/16 13/47/16 1/48/16
f 1/48/17 13/47/17 20/30/17 9/29/17
f 11/32/18 24/31/18 22/42/18 7/41/18
f 7/49/19 5/50/19 60/51/19 59/52/19
f 11/53/19 7/49/19 59/52/19 56/54/19
f 9/55/19 11/53/19 56/54/19 55/56/19
f 3/57/19 1/58/19 58/59/19 57/60/19
f 1/58/19 9/55/19 55/56/19 58/59/19
f 5/50/19 3/57/19 57/60/19 60/51/19
f 23/40/6 30/61/6 25/62/6 14/22/6
f 21/26/4 29/63/4 30/64/4 23/27/4
f 19/34/3 28/65/3 29/63/3 21/26/3
f 17/36/5 27/66/5 28/65/5 19/34/5
f 15/23/20 26/67/20 27/68/20 17/37/20
f 14/22/21 25/62/21 26/67/21 15/23/21
f 4/69/1 6/70/1 37/71/1 31/72/1
f 35/20/21 33/19/21 32/73/21 46/74/21
f 6/70/1 8/1/1 39/4/1 37/71/1
f 10/2/1 12/75/1 43/76/1 41/3/1
f 27/77/2 26/78/2 45/79/2 47/80/2
f 25/81/2 30/5/2 53/8/2 36/82/2
f 12/75/1 2/83/1 34/84/1 43/76/1
f 29/6/2 28/85/2 49/86/2 51/7/2
f 46/74/20 32/73/20 38/87/20 48/88/20
f 26/78/2 25/81/2 36/82/2 45/79/2
f 28/85/2 27/77/2 47/80/2 49/86/2
f 32/73/22 33/19/22 34/89/22 31/90/22
f 38/91/23 32/92/23 31/72/23 37/71/23
f 40/93/24 38/91/24 37/71/24 39/4/24
f 42/11/25 40/10/25 39/94/25 41/95/25
f 44/96/26 42/97/26 41/3/26 43/76/26
f 33/98/27 44/96/27 43/76/27 34/84/27
f 54/99/28 35/100/28 36/82/28 53/8/28
f 52/101/29 54/99/29 53/8/29 51/7/29
f 50/9/30 52/12/30 51/102/30 49/103/30
f 48/104/31 50/105/31 49/86/31 47/80/31
f 46/106/32 48/104/32 47/80/32 45/79/32
f 35/20/33 46/74/33 45/107/33 36/108/33
f 2/83/1 4/69/1 31/72/1 34/84/1
f 106/109/34 86/110/34 85/111/34 92/112/34
f 87/113/35 84/114/35 80/115/35 88/116/35
f 90/117/36 72/118/36 67/119/36 86/120/36
f 89/121/37 76/122/37 72/118/37 90/117/37
f 88/123/38 80/124/38 76/122/38 89/121/38
f 86/125/39 67/126/39 68/127/39 85/128/39
f 62/129/40 63/130/40 64/131/40 61/132/40
f 61/132/41 64/131/41 66/133/41 65/134/41
f 65/134/42 66/133/42 68/127/42 67/126/42
f 70/135/43 62/136/43 61/137/43 69/138/43
f 69/138/44 61/137/44 65/139/44 71/140/44
f 71/140/45 65/139/45 67/119/45 72/118/45
f 74/141/46 70/135/46 69/138/46 73/142/46
f 73/142/47 69/138/47 71/140/47 75/143/47
f 75/143/48 71/140/48 72/118/48 76/122/48
f 78/144/49 74/141/49 73/142/49 77/145/49
f 77/145/50 73/142/50 75/143/50 79/146/50
f 79/146/51 75/143/51 76/122/51 80/124/51
f 82/147/52 78/148/52 77/149/52 81/150/52
f 81/150/53 77/149/53 79/151/53 83/152/53
f 83/152/54 79/151/54 80/115/54 84/114/54
f 63/130/55 82/147/55 81/150/55 64/131/55
f 64/131/56 81/150/56 83/152/56 66/133/56
f 66/133/57 83/152/57 84/114/57 68/127/57
f 85/128/58 68/127/58 84/114/58 87/113/58
f 95/153/2 96/154/2 99/155/2 102/156/2 105/157/2 108/158/2
f 93/159/59 87/160/59 88/161/59 97/162/59
f 100/163/60 89/121/60 90/117/60 103/164/60
f 103/165/61 90/166/61 86/110/61 106/109/61
f 63/130/62 56/167/62 59/168/62 82/147/62
f 97/162/63 88/161/63 89/169/63 100/170/63
f 92/112/64 93/159/64 94/171/64 91/172/64
f 91/172/65 94/171/65 96/154/65 95/153/65
f 93/159/66 97/162/66 98/173/66 94/171/66
f 94/171/67 98/173/67 99/155/67 96/154/67
f 97/162/68 100/170/68 101/174/68 98/173/68
f 98/173/69 101/174/69 102/156/69 99/155/69
f 100/170/70 103/165/70 104/175/70 101/174/70
f 101/174/71 104/175/71 105/157/71 102/156/71
f 103/165/72 106/109/72 107/176/72 104/175/72
f 104/175/73 107/176/73 108/158/73 105/157/73
f 106/109/74 92/112/74 91/172/74 107/176/74
f 107/176/75 91/172/75 95/153/75 108/158/75
f 92/177/76 85/128/76 87/113/76 93/178/76
f 70/179/77 58/180/77 55/181/77 62/182/77
f 74/141/78 57/183/78 58/184/78 70/135/78
f 78/185/79 60/186/79 57/187/79 74/188/79
f 82/189/80 59/190/80 60/186/80 78/185/80
f 62/182/81 55/181/81 56/191/81 63/192/81
o Cylinder.001_Cylinder.002
v -0.441720 0.009205 0.255027
v -0.000000 0.009205 0.510055
v 0.441720 0.009205 0.255027
v 0.441720 0.009205 -0.255027
v -0.441720 0.009205 -0.255027
v -0.000000 0.009205 -0.510055
v -0.000000 -0.104407 -0.623918
v -0.000000 -0.608406 -0.679739
v -0.000000 -0.267243 -0.703687
v -0.000000 -0.445910 -0.723787
v 0.588671 -0.608406 -0.339870
v 0.540329 -0.104407 -0.311959
v 0.626818 -0.445910 -0.361894
v 0.609411 -0.267243 -0.351844
v 0.588672 -0.608406 0.339870
v 0.540329 -0.104407 0.311959
v 0.626818 -0.445910 0.361894
v 0.609411 -0.267243 0.351844
v -0.000000 -0.608406 0.679739
v -0.000000 -0.104407 0.623918
v -0.000000 -0.445910 0.723787
v -0.000000 -0.267243 0.703687
v -0.588672 -0.608406 0.339870
v -0.540329 -0.104407 0.311959
v -0.626818 -0.445910 0.361894
v -0.609411 -0.267243 0.351844
v -0.588672 -0.608406 -0.339870
v -0.540329 -0.104407 -0.311959
v -0.626818 -0.445910 -0.361894
v -0.609411 -0.267243 -0.351844
v -0.000000 -0.780211 -0.611114
v 0.529240 -0.780211 -0.305557
v -0.529240 -0.780211 -0.305557
v 0.529240 -0.780211 0.305557
v -0.000000 -0.780211 0.611114
v -0.529240 -0.780211 0.305557
v -0.000000 -0.956576 -0.378848
v -0.000000 -0.929118 -0.476490
v -0.000000 -0.947819 -0.435677
v 0.412652 -0.929118 -0.238245
v 0.328092 -0.956576 -0.189424
v 0.377307 -0.947819 -0.217838
v 0.412652 -0.929118 0.238245
v 0.328092 -0.956576 0.189424
v 0.377307 -0.947819 0.217838
v -0.000000 -0.929118 0.476490
v -0.000000 -0.956576 0.378848
v -0.000000 -0.947819 0.435677
v -0.412652 -0.929118 0.238245
v -0.328092 -0.956576 0.189424
v -0.377307 -0.947819 0.217838
v -0.412652 -0.929118 -0.238245
v -0.328092 -0.956576 -0.189424
v -0.377307 -0.947819 -0.217838
vt 0.698067 0.054565
vt 0.743880 0.034136
vt 0.743880 0.219611
vt 0.698066 0.199182
vt 0.062851 0.543401
vt 0.115306 0.532987
vt 0.115306 0.739290
vt 0.062851 0.728876
vt 0.424909 0.323347
vt 0.477364 0.333761
vt 0.474199 0.436912
vt 0.422064 0.416084
vt 0.424909 0.137871
vt 0.477364 0.127457
vt 0.112141 0.842442
vt 0.060005 0.821614
vt 0.796335 0.023722
vt 0.796335 0.230025
vt 0.949017 0.032193
vt 0.949017 0.221554
vt 0.899974 0.233659
vt 0.899974 0.020088
vt 0.845850 0.236710
vt 0.845850 0.017037
vt 0.630046 0.325290
vt 0.627141 0.419971
vt 0.577727 0.444181
vt 0.581004 0.337395
vt 0.523510 0.450281
vt 0.526880 0.340445
vt 0.630046 0.135928
vt 0.581004 0.123823
vt 0.526880 0.120773
vt 0.627141 0.041247
vt 0.577727 0.017037
vt 0.218945 0.742924
vt 0.215668 0.849710
vt 0.161451 0.855811
vt 0.164821 0.745975
vt 0.267987 0.541458
vt 0.267987 0.730819
vt 0.218945 0.529353
vt 0.164821 0.526302
vt 0.946111 0.316235
vt 0.896698 0.340445
vt 0.842480 0.346546
vt 0.793170 0.333177
vt 0.060005 0.450663
vt 0.112141 0.429835
vt 0.440145 0.727322
vt 0.440145 0.612340
vt 0.539722 0.554850
vt 0.639299 0.612340
vt 0.639299 0.727322
vt 0.539722 0.784813
vt 0.017037 0.563830
vt 0.017037 0.708447
vt 0.379096 0.158301
vt 0.379096 0.302917
vt 0.664964 0.742140
vt 0.700349 0.762569
vt 0.539722 0.855307
vt 0.539722 0.814448
vt 0.017037 0.111718
vt 0.046965 0.128997
vt 0.046965 0.283801
vt 0.017037 0.301080
vt 0.539722 0.525215
vt 0.539722 0.484356
vt 0.700349 0.577094
vt 0.664964 0.597523
vt 0.414481 0.742140
vt 0.414481 0.597523
vt 0.425208 0.603717
vt 0.425208 0.735946
vt 0.539722 0.537602
vt 0.654236 0.603717
vt 0.654236 0.735946
vt 0.539722 0.802061
vt 0.379096 0.762569
vt 0.379096 0.577094
vt 0.345021 0.111718
vt 0.315093 0.128997
vt 0.181029 0.051595
vt 0.181029 0.017037
vt 0.663992 0.153207
vt 0.663992 0.308011
vt 0.181029 0.395760
vt 0.181029 0.361202
vt 0.315093 0.283801
vt 0.345021 0.301080
vt 0.301933 0.558737
vt 0.301933 0.713540
vt 0.982963 0.049472
vt 0.982963 0.204275
vn -0.3937 -0.6165 -0.6819
vn 0.9451 -0.3269 -0.0000
vn -0.9451 -0.3269 0.0000
vn -0.4725 -0.3269 0.8184
vn 0.4725 -0.3269 0.8184
vn -0.4725 -0.3269 -0.8184
vn -0.4603 0.3905 -0.7972
vn -0.4976 0.0970 -0.8619
vn -0.4868 -0.2285 -0.8431
vn -0.9206 0.3905 0.0000
vn -0.9953 0.0970 0.0000
vn -0.9735 -0.2285 0.0000
vn -0.4603 0.3905 0.7972
vn -0.4976 0.0970 0.8619
vn -0.4868 -0.2285 0.8431
vn 0.4603 0.3905 0.7972
vn 0.4976 0.0970 0.8619
vn 0.4868 -0.2285 0.8431
vn 0.9206 0.3905 0.0000
vn 0.9953 0.0970 0.0000
vn 0.9735 -0.2285 -0.0000
vn 0.4603 0.3905 -0.7972
vn 0.4976 0.0970 -0.8619
vn 0.4868 -0.2285 -0.8431
vn 0.4725 -0.3269 -0.8184
vn 0.0000 -1.0000 0.0000
vn 0.7874 -0.6165 0.0000
vn -0.3937 -0.6165 0.6819
vn -0.7874 -0.6165 -0.0000
vn 0.3776 0.6555 -0.6540
vn 0.3937 -0.6165 0.6819
vn 0.2338 -0.8839 -0.4050
vn 0.0876 -0.9845 -0.1517
vn 0.4677 -0.8839 0.0000
vn 0.1752 -0.9845 -0.0000
vn 0.2338 -0.8839 0.4050
vn 0.0876 -0.9845 0.1517
vn -0.2338 -0.8839 0.4050
vn -0.0876 -0.9845 0.1517
vn -0.4677 -0.8839 -0.0000
vn -0.1752 -0.9845 0.0000
vn -0.2338 -0.8839 -0.4050
vn -0.0876 -0.9845 -0.1517
vn 0.3937 -0.6165 -0.6819
vn -0.7552 0.6555 0.0000
vn -0.3776 0.6555 0.6540
vn 0.3776 0.6555 0.6540
vn 0.7552 0.6555 0.0000
vn -0.3776 0.6555 -0.6540
vn -0.0000 1.0000 0.0000
usemtl Material.003
s off
f 160/193/82 141/194/82 139/195/82 146/196/82
f 140/197/83 119/198/83 123/199/83 142/200/83
f 144/201/84 131/202/84 135/203/84 141/204/84
f 143/205/85 127/206/85 131/202/85 144/201/85
f 142/200/86 123/199/86 127/207/86 143/208/86
f 141/194/87 135/209/87 116/210/87 139/195/87
f 136/211/88 115/212/88 117/213/88 138/214/88
f 138/214/89 117/213/89 118/215/89 137/216/89
f 137/216/90 118/215/90 116/210/90 135/209/90
f 132/217/91 136/218/91 138/219/91 134/220/91
f 134/220/92 138/219/92 137/221/92 133/222/92
f 133/222/93 137/221/93 135/203/93 131/202/93
f 128/223/94 132/217/94 134/220/94 130/224/94
f 130/224/95 134/220/95 133/222/95 129/225/95
f 129/225/96 133/222/96 131/202/96 127/206/96
f 124/226/97 128/223/97 130/224/97 126/227/97
f 126/228/98 130/229/98 129/230/98 125/231/98
f 125/231/99 129/230/99 127/207/99 123/199/99
f 120/232/100 124/233/100 126/228/100 122/234/100
f 122/234/101 126/228/101 125/231/101 121/235/101
f 121/235/102 125/231/102 123/199/102 119/198/102
f 115/212/103 120/236/103 122/237/103 117/213/103
f 117/213/104 122/237/104 121/238/104 118/215/104
f 118/215/105 121/238/105 119/239/105 116/210/105
f 139/240/106 116/241/106 119/198/106 140/197/106
f 145/242/107 149/243/107 152/244/107 155/245/107 158/246/107 161/247/107
f 148/248/108 140/197/108 142/200/108 151/249/108
f 154/250/109 143/205/109 144/201/109 157/251/109
f 157/252/110 144/253/110 141/254/110 160/255/110
f 115/256/111 114/257/111 112/258/111 120/259/111
f 151/260/112 142/261/112 143/262/112 154/263/112
f 146/264/113 148/265/113 150/266/113 147/267/113
f 147/267/114 150/266/114 149/243/114 145/242/114
f 148/265/115 151/260/115 153/268/115 150/266/115
f 150/266/116 153/268/116 152/244/116 149/243/116
f 151/260/117 154/263/117 156/269/117 153/268/117
f 153/268/118 156/269/118 155/245/118 152/244/118
f 154/263/119 157/252/119 159/270/119 156/269/119
f 156/269/120 159/270/120 158/246/120 155/245/120
f 157/252/121 160/255/121 162/271/121 159/270/121
f 159/270/122 162/271/122 161/247/122 158/246/122
f 160/255/123 146/264/123 147/267/123 162/271/123
f 162/271/124 147/267/124 145/242/124 161/247/124
f 146/264/125 139/272/125 140/273/125 148/265/125
f 132/274/126 109/275/126 113/276/126 136/277/126
f 128/223/127 110/278/127 109/279/127 132/217/127
f 124/280/128 111/281/128 110/282/128 128/283/128
f 120/232/129 112/284/129 111/285/129 124/233/129
f 136/211/130 113/286/130 114/287/130 115/212/130
f 109/275/131 110/282/131 111/281/131 112/258/131 114/257/131 113/276/131
o Cylinder.002_Cylinder.003
v -0.000000 0.714501 -0.179890
v 0.155789 0.714501 -0.089945
v 0.155789 0.714501 0.089945
v -0.000000 0.714501 0.179890
v -0.155789 0.714501 0.089945
v -0.155789 0.714501 -0.089945
v 0.252842 1.171677 -0.145979
v 0.267952 1.151722 -0.154702
v -0.000000 1.151722 -0.309405
v -0.000000 1.171677 -0.291957
v 0.252842 1.171677 0.145979
v 0.267952 1.151722 0.154702
v -0.000000 1.171677 0.291957
v -0.000000 1.151722 0.309405
v -0.252843 1.171677 0.145979
v -0.267952 1.151722 0.154702
v -0.252843 1.171677 -0.145979
v -0.267952 1.151722 -0.154702
vt 0.527661 0.338703
vt 0.462815 0.356228
vt 0.416127 0.056036
vt 0.527662 0.025894
vt 0.127703 0.795533
vt 0.062856 0.813058
vt 0.016169 0.512866
vt 0.127703 0.482724
vt 0.249853 0.813058
vt 0.337798 0.512866
vt 0.649812 0.356228
vt 0.737757 0.056036
vt 0.527661 0.711099
vt 0.462815 0.728624
vt 0.416127 0.428432
vt 0.527662 0.398290
vt 0.199979 0.428693
vt 0.026534 0.328554
vt 0.026534 0.128276
vt 0.199979 0.028137
vt 0.373425 0.128276
vt 0.373425 0.328554
vt 0.737757 0.428432
vt 0.535102 0.388565
vt 0.733350 0.417007
vt 0.383790 0.334538
vt 0.199979 0.440661
vt 0.135143 0.472999
vt 0.333392 0.501441
vt 0.199979 0.016169
vt 0.383790 0.122292
vt 0.535102 0.016169
vt 0.733350 0.044611
vt 0.016169 0.334538
vt 0.016169 0.122292
vt 0.649812 0.728624
vt 0.770094 0.201271
vt 0.770094 0.077869
vt 0.876963 0.016169
vt 0.983831 0.077869
vt 0.983831 0.201271
vt 0.876963 0.262971
vn -0.4843 -0.2485 0.8389
vn 0.9686 -0.2485 0.0000
vn 0.4843 -0.2485 0.8389
vn -0.9686 -0.2485 0.0000
vn -0.4843 -0.2485 -0.8389
vn 0.0000 1.0000 -0.0000
vn 0.3986 0.6037 -0.6904
vn 0.7972 0.6037 0.0000
vn 0.3986 0.6037 0.6904
vn -0.3986 0.6037 0.6904
vn -0.7972 0.6037 0.0000
vn -0.3986 0.6037 -0.6904
vn 0.4843 -0.2485 -0.8389
vn 0.0000 -1.0000 0.0000
usemtl Material.004
s off
f 167/288/132 166/289/132 176/290/132 178/291/132
f 165/292/133 164/293/133 170/294/133 174/295/133
f 166/296/134 165/292/134 174/295/134 176/297/134
f 168/298/135 167/288/135 178/291/135 180/299/135
f 163/300/136 168/301/136 180/302/136 171/303/136
f 169/304/137 172/305/137 179/306/137 177/307/137 175/308/137 173/309/137
f 170/310/138 171/303/138 172/311/138 169/312/138
f 174/313/139 170/314/139 169/304/139 173/309/139
f 176/297/140 174/295/140 173/315/140 175/316/140
f 178/317/141 176/318/141 175/308/141 177/307/141
f 180/299/142 178/291/142 177/319/142 179/320/142
f 171/321/143 180/322/143 179/306/143 172/305/143
f 164/323/144 163/300/144 171/303/144 170/310/144
f 164/324/145 165/325/145 166/326/145 167/327/145 168/328/145 163/329/145
