# Blender v3.1.2 OBJ File: 'test.blend'
# www.blender.org
mtllib snareTest.mtl
o Icosphere
v 0.176907 0.530349 -0.440562
v 0.261259 0.534424 -0.410049
v 0.362016 0.478109 -0.562975
v 0.198494 0.469740 -0.617290
v 0.168525 0.170525 -0.813774
v 0.430814 0.151358 -0.821921
v 0.549218 -0.002560 0.173770
v 0.553226 -0.022169 -0.220426
v 0.002324 -0.004656 0.580557
v 0.305958 0.004464 0.438227
v -0.570658 -0.009229 0.177175
v -0.358972 -0.012441 0.465254
v -0.379060 -0.037091 -0.495384
v -0.592496 -0.020476 -0.189712
v 0.373131 -0.015277 -0.500472
v 0.016840 -0.024378 -0.593546
v -0.456742 0.587449 0.074887
v -0.475551 0.601899 -0.012389
v -0.653967 0.543037 -0.034081
v -0.619916 0.516594 0.133996
v -0.850843 0.190360 0.157438
v -0.875214 0.216937 -0.102195
v 0.295289 0.572438 0.489111
v 0.237323 0.575820 0.559742
v 0.343282 0.504727 0.719299
v 0.459059 0.499503 0.588798
v 0.606371 0.169632 0.643319
v 0.401018 0.157877 0.807399
v 0.159537 -0.004120 0.529964
v 0.447357 -0.000079 0.319485
v 0.263185 0.572654 -0.430715
v 0.363799 0.515498 -0.584451
v 0.200120 0.506217 -0.639645
v 0.178772 0.568224 -0.461569
v 0.552997 -0.061907 -0.223436
v 0.372801 -0.053622 -0.504951
v 0.015754 -0.060345 -0.599863
v -0.383057 -0.072621 -0.498839
v -0.599371 -0.056093 -0.189746
v -0.574363 -0.048413 0.177544
v -0.360988 -0.053172 0.465437
v 0.003360 -0.046606 0.581718
v 0.549178 -0.044921 0.173530
v 0.447392 -0.042598 0.319518
v 0.165846 0.174868 -0.857255
v 0.428344 0.154605 -0.863171
v -0.496322 0.638385 0.000106
v -0.675802 0.578426 -0.021822
v -0.641340 0.552406 0.146346
v -0.477319 0.624136 0.087425
v 0.305932 -0.038089 0.438190
v 0.160859 -0.045907 0.531448
v -0.917779 0.219816 -0.096434
v -0.892806 0.192323 0.163071
v 0.256141 0.612369 0.573904
v 0.362521 0.537723 0.734327
v 0.478233 0.533045 0.603693
v 0.314057 0.609407 0.503170
v 0.628597 0.146870 0.667651
v 0.423006 0.134709 0.831490
vt 0.718351 0.488935
vt 0.663737 0.364801
vt 0.532844 0.308757
vt 0.383446 0.325235
vt 0.284449 0.427575
vt 0.264512 0.568556
vt 0.331251 0.694334
vt 0.459172 0.756861
vt 0.524237 0.745782
vt 0.587900 0.719120
vt 0.650431 0.680036
vt 0.698414 0.629916
vt -0.024611 0.426355
vt -0.102439 0.432275
vt -0.107483 0.468203
vt -0.034292 0.495321
vt 0.162957 0.433882
vt 0.148324 0.538129
vt 0.701874 1.041790
vt 0.749286 1.103792
vt 0.782149 1.088422
vt 0.764957 1.012287
vt 0.605875 0.880474
vt 0.701231 0.835878
vt 0.782149 -0.046543
vt 0.748798 -0.060823
vt 0.703451 0.002706
vt 0.767471 0.030117
vt 0.614293 0.167726
vt 0.711064 0.209161
vt 0.000000 0.000000
vt 0.000000 0.000000
vt 0.000000 0.000000
vt 0.000000 0.000000
vt 0.000000 0.000000
vt 0.000000 0.000000
vt 0.000000 0.000000
vt 0.000000 0.000000
vt 0.000000 0.000000
vt 0.000000 0.000000
vt 0.000000 0.000000
vt 0.000000 0.000000
vt 0.000000 0.000000
vt 0.000000 0.000000
vt 0.000000 0.000000
vt 0.000000 0.000000
vt 0.000000 0.000000
vt 0.000000 0.000000
vt 0.000000 0.000000
vt 0.000000 0.000000
vt 0.000000 0.000000
vt 0.000000 0.000000
vt 0.000000 0.000000
vt 0.000000 0.000000
vt 0.000000 0.000000
vt 0.000000 0.000000
vt 0.000000 0.000000
vt 0.000000 0.000000
vt 0.000000 0.000000
vt 0.000000 0.000000
vt 0.000000 0.000000
vt 0.000000 0.000000
vt 0.943875 0.515561
vt 0.926020 0.515572
vt 0.925998 0.607413
vt 0.943853 0.607402
vt 0.943868 0.223720
vt 0.926013 0.223731
vt 0.925992 0.342709
vt 0.943848 0.342698
vt 0.946555 0.388729
vt 0.964411 0.388737
vt 0.964407 0.324966
vt 0.946552 0.324957
vt 0.000000 0.000000
vt 0.000000 0.000000
vt 0.000000 0.000000
vt 0.000000 0.000000
vt 0.000000 0.000000
vt 0.000000 0.000000
vt 0.000000 0.000000
vt 0.000000 0.000000
vt 0.000000 0.000000
vt 0.926012 0.394294
vt 0.943867 0.394283
vt 0.964407 0.391401
vt 0.946552 0.391388
vt 0.946552 0.552098
vt 0.964407 0.552111
vt 0.943894 0.090328
vt 0.926038 0.090339
vt 0.964407 0.554765
vt 0.946552 0.554762
vt 0.946552 0.676698
vt 0.964407 0.676702
vt 0.946552 0.859086
vt 0.964407 0.859090
vt 0.964407 0.803920
vt 0.946552 0.803916
vt 0.946555 0.166917
vt 0.964410 0.166926
vt 0.964411 0.030631
vt 0.946555 0.030622
vt 0.000000 0.000000
vt 0.946552 0.801253
vt 0.964407 0.801265
vt 0.964407 0.679365
vt 0.946552 0.679353
vt 0.926017 0.746545
vt 0.943872 0.746534
vt 0.000000 0.000000
vt 0.000000 0.000000
vt 0.943895 0.906993
vt 0.926039 0.907004
vt 0.926045 0.973745
vt 0.943901 0.973734
vt 0.943901 0.030622
vt 0.926045 0.030634
vt 0.000000 0.000000
vt 0.000000 0.000000
vt 0.964407 0.861741
vt 0.946552 0.861741
vt 0.946552 0.889184
vt 0.964407 0.889184
vt 0.984913 0.391388
vt 0.967058 0.391398
vt 0.967058 0.422467
vt 0.984913 0.422458
vn -0.0089 0.9997 -0.0216
vn 0.3260 -0.9206 -0.2149
vn 0.8142 -0.5521 -0.1797
vn 0.6111 0.7911 -0.0257
vn -0.2929 -0.9321 -0.2131
vn -0.6323 -0.3385 -0.6968
vn -0.2715 0.9082 -0.3185
vn -0.0598 -0.9476 0.3139
vn -0.1018 -0.5894 0.8014
vn -0.0602 0.8408 0.5379
vn 0.0056 -0.9999 0.0163
vn -0.3295 0.9196 0.2139
vn -0.8174 0.5466 0.1820
vn -0.6279 -0.7779 0.0255
vn 0.3010 0.9269 0.2243
vn 0.6375 0.3140 0.7036
vn 0.2772 -0.9041 0.3252
vn 0.0582 0.9462 -0.3184
vn 0.1082 0.5824 -0.8057
vn 0.0638 -0.8197 -0.5692
vn 0.0059 0.3288 -0.9444
vn 0.8413 0.0456 -0.5386
vn 0.8621 0.1093 -0.4949
vn 0.3755 -0.0988 0.9215
vn -0.2448 0.1484 -0.9582
vn 0.8513 0.5151 -0.0997
vn -0.3043 0.0191 0.9524
vn -0.7508 -0.0094 0.6604
vn -0.1916 0.1189 -0.9743
vn 0.8199 -0.0014 0.5724
vn -0.6951 0.0672 0.7157
vn 0.6587 0.1519 -0.7369
vn -0.8063 0.1513 -0.5718
vn 0.3048 0.0386 0.9516
vn 0.0321 0.1207 0.9922
vn -0.8911 0.4105 -0.1933
vn -0.1064 0.2714 -0.9566
vn -0.8027 0.0615 0.5932
vn 0.2180 -0.0964 0.9712
vn 0.9830 -0.1698 0.0701
vn -0.7813 0.1762 0.5987
vn 0.9999 -0.0037 0.0101
vn 0.8506 0.2235 0.4759
vn 0.5385 0.0555 -0.8408
vn 0.9883 0.1328 0.0752
vn -0.9934 -0.0195 -0.1135
vn -0.6400 0.5378 -0.5488
vn -0.9963 0.0647 0.0560
vn -0.3229 0.4669 0.8233
usemtl Material
s off
f 8/1/1 15/2/1 16/3/1 13/4/1 14/5/1 11/6/1 12/7/1 9/8/1 29/9/1 10/10/1 30/11/1 7/12/1
f 19/13/2 18/14/2 17/15/2 20/16/2
f 22/17/3 19/13/3 20/16/3 21/18/3
f 11/6/4 14/5/4 22/17/4 21/18/4
f 25/19/5 24/20/5 23/21/5 26/22/5
f 28/23/6 25/19/6 26/22/6 27/24/6
f 10/10/7 29/9/7 28/23/7 27/24/7 30/11/7
f 2/25/8 1/26/8 4/27/8 3/28/8
f 3/28/9 4/27/9 5/29/9 6/30/9
f 15/2/10 6/30/10 5/29/10 16/3/10
f 35/31/11 43/32/11 44/33/11 51/34/11 52/35/11 42/36/11 41/37/11 40/38/11 39/39/11 38/40/11 37/41/11 36/42/11
f 48/43/12 49/44/12 50/45/12 47/46/12
f 53/47/13 54/48/13 49/44/13 48/43/13
f 40/38/14 54/48/14 53/47/14 39/39/14
f 56/49/15 57/50/15 58/51/15 55/52/15
f 60/53/16 59/54/16 57/50/16 56/49/16
f 51/34/17 44/33/17 59/54/17 60/53/17 52/35/17
f 31/55/18 32/56/18 33/57/18 34/58/18
f 32/56/19 46/59/19 45/60/19 33/57/19
f 36/42/20 37/41/20 45/60/20 46/59/20
f 19/61/21 48/43/21 47/46/21 18/62/21
f 8/63/22 35/64/22 36/65/22 15/66/22
f 27/67/23 59/68/23 44/69/23 30/70/23
f 17/71/24 50/72/24 49/73/24 20/74/24
f 16/75/25 37/41/25 38/40/25 13/76/25
f 18/62/26 47/46/26 50/45/26 17/77/26
f 12/78/27 41/37/27 42/36/27 9/79/27
f 29/80/28 52/35/28 60/53/28 28/81/28
f 14/82/29 39/39/29 53/47/29 22/83/29
f 30/70/30 44/69/30 43/84/30 7/85/30
f 28/86/31 60/87/31 56/88/31 25/89/31
f 26/90/32 57/91/32 59/68/32 27/67/32
f 13/92/33 38/93/33 39/94/33 14/95/33
f 9/96/34 42/97/34 52/98/34 29/99/34
f 21/100/35 54/101/35 40/102/35 11/103/35
f 5/104/36 45/60/36 37/41/36 16/75/36
f 22/83/37 53/47/37 48/43/37 19/61/37
f 11/105/38 40/106/38 41/107/38 12/108/38
f 20/74/39 49/73/39 54/101/39 21/100/39
f 15/66/40 36/65/40 46/109/40 6/110/40
f 25/111/41 56/49/41 55/52/41 24/112/41
f 7/85/42 43/84/42 35/64/42 8/63/42
f 3/113/43 32/114/43 31/115/43 2/116/43
f 23/117/44 58/118/44 57/91/44 26/90/44
f 6/110/45 46/109/45 32/114/45 3/113/45
f 1/119/46 34/58/46 33/57/46 4/120/46
f 24/121/47 55/122/47 58/123/47 23/124/47
f 4/120/48 33/57/48 45/60/48 5/104/48
f 2/125/49 31/126/49 34/127/49 1/128/49
